G04 #@! TF.GenerationSoftware,KiCad,Pcbnew,(6.0.0-rc1-dev-1198-gf6cdcc1db)*
G04 #@! TF.CreationDate,2018-11-21T14:47:26-05:00*
G04 #@! TF.ProjectId,recurse-logo,72656375-7273-4652-9d6c-6f676f2e6b69,rev?*
G04 #@! TF.SameCoordinates,Original*
G04 #@! TF.FileFunction,Copper,L2,Bot*
G04 #@! TF.FilePolarity,Positive*
%FSLAX46Y46*%
G04 Gerber Fmt 4.6, Leading zero omitted, Abs format (unit mm)*
G04 Created by KiCad (PCBNEW (6.0.0-rc1-dev-1198-gf6cdcc1db)) date Wednesday, November 21, 2018 at 02:47:26 PM*
%MOMM*%
%LPD*%
G01*
G04 APERTURE LIST*
G04 #@! TA.AperFunction,ComponentPad*
%ADD10C,1.800000*%
G04 #@! TD*
G04 #@! TA.AperFunction,ComponentPad*
%ADD11R,1.800000X1.800000*%
G04 #@! TD*
G04 #@! TA.AperFunction,SMDPad,CuDef*
%ADD12R,5.100000X2.500000*%
G04 #@! TD*
G04 #@! TA.AperFunction,BGAPad,CuDef*
%ADD13C,10.200000*%
G04 #@! TD*
G04 #@! TA.AperFunction,SMDPad,CuDef*
%ADD14R,1.600000X3.500000*%
G04 #@! TD*
G04 #@! TA.AperFunction,SMDPad,CuDef*
%ADD15R,0.900000X0.800000*%
G04 #@! TD*
G04 #@! TA.AperFunction,Conductor*
%ADD16C,0.100000*%
G04 #@! TD*
G04 #@! TA.AperFunction,SMDPad,CuDef*
%ADD17C,1.525000*%
G04 #@! TD*
G04 #@! TA.AperFunction,Conductor*
%ADD18C,0.250000*%
G04 #@! TD*
G04 #@! TA.AperFunction,Conductor*
%ADD19C,0.500000*%
G04 #@! TD*
G04 #@! TA.AperFunction,Conductor*
%ADD20C,0.254000*%
G04 #@! TD*
G04 APERTURE END LIST*
D10*
G04 #@! TO.P,D6,2*
G04 #@! TO.N,Net-(D5-Pad1)*
X43460000Y-39500000D03*
D11*
G04 #@! TO.P,D6,1*
G04 #@! TO.N,Net-(D6-Pad1)*
X46000000Y-39500000D03*
G04 #@! TD*
D12*
G04 #@! TO.P,BT1,1*
G04 #@! TO.N,VCC*
X42447000Y-81924000D03*
X42447000Y-66724000D03*
D13*
G04 #@! TO.P,BT1,2*
G04 #@! TO.N,GND*
X42447000Y-74324000D03*
G04 #@! TD*
D14*
G04 #@! TO.P,C1,1*
G04 #@! TO.N,Net-(C1-Pad1)*
X63021000Y-51558000D03*
G04 #@! TO.P,C1,2*
G04 #@! TO.N,Net-(C1-Pad2)*
X63021000Y-56958000D03*
G04 #@! TD*
G04 #@! TO.P,C2,1*
G04 #@! TO.N,Net-(C2-Pad1)*
X21619000Y-51558000D03*
G04 #@! TO.P,C2,2*
G04 #@! TO.N,Net-(C2-Pad2)*
X21619000Y-56958000D03*
G04 #@! TD*
D15*
G04 #@! TO.P,Q2,1*
G04 #@! TO.N,Net-(C1-Pad1)*
X34049000Y-56102000D03*
G04 #@! TO.P,Q2,2*
G04 #@! TO.N,GND*
X34049000Y-58002000D03*
G04 #@! TO.P,Q2,3*
G04 #@! TO.N,Net-(C2-Pad2)*
X32049000Y-57052000D03*
G04 #@! TD*
G04 #@! TO.P,Q1,3*
G04 #@! TO.N,Net-(C1-Pad2)*
X51321000Y-57052000D03*
G04 #@! TO.P,Q1,2*
G04 #@! TO.N,GND*
X49321000Y-56102000D03*
G04 #@! TO.P,Q1,1*
G04 #@! TO.N,Net-(C2-Pad1)*
X49321000Y-58002000D03*
G04 #@! TD*
D16*
G04 #@! TO.N,Net-(D3-Pad1)*
G04 #@! TO.C,R1*
G36*
X56199505Y-28176204D02*
X56223773Y-28179804D01*
X56247572Y-28185765D01*
X56270671Y-28194030D01*
X56292850Y-28204520D01*
X56313893Y-28217132D01*
X56333599Y-28231747D01*
X56351777Y-28248223D01*
X56368253Y-28266401D01*
X56382868Y-28286107D01*
X56395480Y-28307150D01*
X56405970Y-28329329D01*
X56414235Y-28352428D01*
X56420196Y-28376227D01*
X56423796Y-28400495D01*
X56425000Y-28424999D01*
X56425000Y-30575001D01*
X56423796Y-30599505D01*
X56420196Y-30623773D01*
X56414235Y-30647572D01*
X56405970Y-30670671D01*
X56395480Y-30692850D01*
X56382868Y-30713893D01*
X56368253Y-30733599D01*
X56351777Y-30751777D01*
X56333599Y-30768253D01*
X56313893Y-30782868D01*
X56292850Y-30795480D01*
X56270671Y-30805970D01*
X56247572Y-30814235D01*
X56223773Y-30820196D01*
X56199505Y-30823796D01*
X56175001Y-30825000D01*
X55149999Y-30825000D01*
X55125495Y-30823796D01*
X55101227Y-30820196D01*
X55077428Y-30814235D01*
X55054329Y-30805970D01*
X55032150Y-30795480D01*
X55011107Y-30782868D01*
X54991401Y-30768253D01*
X54973223Y-30751777D01*
X54956747Y-30733599D01*
X54942132Y-30713893D01*
X54929520Y-30692850D01*
X54919030Y-30670671D01*
X54910765Y-30647572D01*
X54904804Y-30623773D01*
X54901204Y-30599505D01*
X54900000Y-30575001D01*
X54900000Y-28424999D01*
X54901204Y-28400495D01*
X54904804Y-28376227D01*
X54910765Y-28352428D01*
X54919030Y-28329329D01*
X54929520Y-28307150D01*
X54942132Y-28286107D01*
X54956747Y-28266401D01*
X54973223Y-28248223D01*
X54991401Y-28231747D01*
X55011107Y-28217132D01*
X55032150Y-28204520D01*
X55054329Y-28194030D01*
X55077428Y-28185765D01*
X55101227Y-28179804D01*
X55125495Y-28176204D01*
X55149999Y-28175000D01*
X56175001Y-28175000D01*
X56199505Y-28176204D01*
X56199505Y-28176204D01*
G37*
D17*
G04 #@! TD*
G04 #@! TO.P,R1,2*
G04 #@! TO.N,Net-(D3-Pad1)*
X55662500Y-29500000D03*
D16*
G04 #@! TO.N,Net-(C1-Pad2)*
G04 #@! TO.C,R1*
G36*
X60874505Y-28176204D02*
X60898773Y-28179804D01*
X60922572Y-28185765D01*
X60945671Y-28194030D01*
X60967850Y-28204520D01*
X60988893Y-28217132D01*
X61008599Y-28231747D01*
X61026777Y-28248223D01*
X61043253Y-28266401D01*
X61057868Y-28286107D01*
X61070480Y-28307150D01*
X61080970Y-28329329D01*
X61089235Y-28352428D01*
X61095196Y-28376227D01*
X61098796Y-28400495D01*
X61100000Y-28424999D01*
X61100000Y-30575001D01*
X61098796Y-30599505D01*
X61095196Y-30623773D01*
X61089235Y-30647572D01*
X61080970Y-30670671D01*
X61070480Y-30692850D01*
X61057868Y-30713893D01*
X61043253Y-30733599D01*
X61026777Y-30751777D01*
X61008599Y-30768253D01*
X60988893Y-30782868D01*
X60967850Y-30795480D01*
X60945671Y-30805970D01*
X60922572Y-30814235D01*
X60898773Y-30820196D01*
X60874505Y-30823796D01*
X60850001Y-30825000D01*
X59824999Y-30825000D01*
X59800495Y-30823796D01*
X59776227Y-30820196D01*
X59752428Y-30814235D01*
X59729329Y-30805970D01*
X59707150Y-30795480D01*
X59686107Y-30782868D01*
X59666401Y-30768253D01*
X59648223Y-30751777D01*
X59631747Y-30733599D01*
X59617132Y-30713893D01*
X59604520Y-30692850D01*
X59594030Y-30670671D01*
X59585765Y-30647572D01*
X59579804Y-30623773D01*
X59576204Y-30599505D01*
X59575000Y-30575001D01*
X59575000Y-28424999D01*
X59576204Y-28400495D01*
X59579804Y-28376227D01*
X59585765Y-28352428D01*
X59594030Y-28329329D01*
X59604520Y-28307150D01*
X59617132Y-28286107D01*
X59631747Y-28266401D01*
X59648223Y-28248223D01*
X59666401Y-28231747D01*
X59686107Y-28217132D01*
X59707150Y-28204520D01*
X59729329Y-28194030D01*
X59752428Y-28185765D01*
X59776227Y-28179804D01*
X59800495Y-28176204D01*
X59824999Y-28175000D01*
X60850001Y-28175000D01*
X60874505Y-28176204D01*
X60874505Y-28176204D01*
G37*
D17*
G04 #@! TD*
G04 #@! TO.P,R1,1*
G04 #@! TO.N,Net-(C1-Pad2)*
X60337500Y-29500000D03*
D16*
G04 #@! TO.N,Net-(C1-Pad2)*
G04 #@! TO.C,R2*
G36*
X46594505Y-46587204D02*
X46618773Y-46590804D01*
X46642572Y-46596765D01*
X46665671Y-46605030D01*
X46687850Y-46615520D01*
X46708893Y-46628132D01*
X46728599Y-46642747D01*
X46746777Y-46659223D01*
X46763253Y-46677401D01*
X46777868Y-46697107D01*
X46790480Y-46718150D01*
X46800970Y-46740329D01*
X46809235Y-46763428D01*
X46815196Y-46787227D01*
X46818796Y-46811495D01*
X46820000Y-46835999D01*
X46820000Y-47861001D01*
X46818796Y-47885505D01*
X46815196Y-47909773D01*
X46809235Y-47933572D01*
X46800970Y-47956671D01*
X46790480Y-47978850D01*
X46777868Y-47999893D01*
X46763253Y-48019599D01*
X46746777Y-48037777D01*
X46728599Y-48054253D01*
X46708893Y-48068868D01*
X46687850Y-48081480D01*
X46665671Y-48091970D01*
X46642572Y-48100235D01*
X46618773Y-48106196D01*
X46594505Y-48109796D01*
X46570001Y-48111000D01*
X44419999Y-48111000D01*
X44395495Y-48109796D01*
X44371227Y-48106196D01*
X44347428Y-48100235D01*
X44324329Y-48091970D01*
X44302150Y-48081480D01*
X44281107Y-48068868D01*
X44261401Y-48054253D01*
X44243223Y-48037777D01*
X44226747Y-48019599D01*
X44212132Y-47999893D01*
X44199520Y-47978850D01*
X44189030Y-47956671D01*
X44180765Y-47933572D01*
X44174804Y-47909773D01*
X44171204Y-47885505D01*
X44170000Y-47861001D01*
X44170000Y-46835999D01*
X44171204Y-46811495D01*
X44174804Y-46787227D01*
X44180765Y-46763428D01*
X44189030Y-46740329D01*
X44199520Y-46718150D01*
X44212132Y-46697107D01*
X44226747Y-46677401D01*
X44243223Y-46659223D01*
X44261401Y-46642747D01*
X44281107Y-46628132D01*
X44302150Y-46615520D01*
X44324329Y-46605030D01*
X44347428Y-46596765D01*
X44371227Y-46590804D01*
X44395495Y-46587204D01*
X44419999Y-46586000D01*
X46570001Y-46586000D01*
X46594505Y-46587204D01*
X46594505Y-46587204D01*
G37*
D17*
G04 #@! TD*
G04 #@! TO.P,R2,1*
G04 #@! TO.N,Net-(C1-Pad2)*
X45495000Y-47348500D03*
D16*
G04 #@! TO.N,VCC*
G04 #@! TO.C,R2*
G36*
X46594505Y-51262204D02*
X46618773Y-51265804D01*
X46642572Y-51271765D01*
X46665671Y-51280030D01*
X46687850Y-51290520D01*
X46708893Y-51303132D01*
X46728599Y-51317747D01*
X46746777Y-51334223D01*
X46763253Y-51352401D01*
X46777868Y-51372107D01*
X46790480Y-51393150D01*
X46800970Y-51415329D01*
X46809235Y-51438428D01*
X46815196Y-51462227D01*
X46818796Y-51486495D01*
X46820000Y-51510999D01*
X46820000Y-52536001D01*
X46818796Y-52560505D01*
X46815196Y-52584773D01*
X46809235Y-52608572D01*
X46800970Y-52631671D01*
X46790480Y-52653850D01*
X46777868Y-52674893D01*
X46763253Y-52694599D01*
X46746777Y-52712777D01*
X46728599Y-52729253D01*
X46708893Y-52743868D01*
X46687850Y-52756480D01*
X46665671Y-52766970D01*
X46642572Y-52775235D01*
X46618773Y-52781196D01*
X46594505Y-52784796D01*
X46570001Y-52786000D01*
X44419999Y-52786000D01*
X44395495Y-52784796D01*
X44371227Y-52781196D01*
X44347428Y-52775235D01*
X44324329Y-52766970D01*
X44302150Y-52756480D01*
X44281107Y-52743868D01*
X44261401Y-52729253D01*
X44243223Y-52712777D01*
X44226747Y-52694599D01*
X44212132Y-52674893D01*
X44199520Y-52653850D01*
X44189030Y-52631671D01*
X44180765Y-52608572D01*
X44174804Y-52584773D01*
X44171204Y-52560505D01*
X44170000Y-52536001D01*
X44170000Y-51510999D01*
X44171204Y-51486495D01*
X44174804Y-51462227D01*
X44180765Y-51438428D01*
X44189030Y-51415329D01*
X44199520Y-51393150D01*
X44212132Y-51372107D01*
X44226747Y-51352401D01*
X44243223Y-51334223D01*
X44261401Y-51317747D01*
X44281107Y-51303132D01*
X44302150Y-51290520D01*
X44324329Y-51280030D01*
X44347428Y-51271765D01*
X44371227Y-51265804D01*
X44395495Y-51262204D01*
X44419999Y-51261000D01*
X46570001Y-51261000D01*
X46594505Y-51262204D01*
X46594505Y-51262204D01*
G37*
D17*
G04 #@! TD*
G04 #@! TO.P,R2,2*
G04 #@! TO.N,VCC*
X45495000Y-52023500D03*
D16*
G04 #@! TO.N,VCC*
G04 #@! TO.C,R3*
G36*
X33259505Y-46460204D02*
X33283773Y-46463804D01*
X33307572Y-46469765D01*
X33330671Y-46478030D01*
X33352850Y-46488520D01*
X33373893Y-46501132D01*
X33393599Y-46515747D01*
X33411777Y-46532223D01*
X33428253Y-46550401D01*
X33442868Y-46570107D01*
X33455480Y-46591150D01*
X33465970Y-46613329D01*
X33474235Y-46636428D01*
X33480196Y-46660227D01*
X33483796Y-46684495D01*
X33485000Y-46708999D01*
X33485000Y-47734001D01*
X33483796Y-47758505D01*
X33480196Y-47782773D01*
X33474235Y-47806572D01*
X33465970Y-47829671D01*
X33455480Y-47851850D01*
X33442868Y-47872893D01*
X33428253Y-47892599D01*
X33411777Y-47910777D01*
X33393599Y-47927253D01*
X33373893Y-47941868D01*
X33352850Y-47954480D01*
X33330671Y-47964970D01*
X33307572Y-47973235D01*
X33283773Y-47979196D01*
X33259505Y-47982796D01*
X33235001Y-47984000D01*
X31084999Y-47984000D01*
X31060495Y-47982796D01*
X31036227Y-47979196D01*
X31012428Y-47973235D01*
X30989329Y-47964970D01*
X30967150Y-47954480D01*
X30946107Y-47941868D01*
X30926401Y-47927253D01*
X30908223Y-47910777D01*
X30891747Y-47892599D01*
X30877132Y-47872893D01*
X30864520Y-47851850D01*
X30854030Y-47829671D01*
X30845765Y-47806572D01*
X30839804Y-47782773D01*
X30836204Y-47758505D01*
X30835000Y-47734001D01*
X30835000Y-46708999D01*
X30836204Y-46684495D01*
X30839804Y-46660227D01*
X30845765Y-46636428D01*
X30854030Y-46613329D01*
X30864520Y-46591150D01*
X30877132Y-46570107D01*
X30891747Y-46550401D01*
X30908223Y-46532223D01*
X30926401Y-46515747D01*
X30946107Y-46501132D01*
X30967150Y-46488520D01*
X30989329Y-46478030D01*
X31012428Y-46469765D01*
X31036227Y-46463804D01*
X31060495Y-46460204D01*
X31084999Y-46459000D01*
X33235001Y-46459000D01*
X33259505Y-46460204D01*
X33259505Y-46460204D01*
G37*
D17*
G04 #@! TD*
G04 #@! TO.P,R3,2*
G04 #@! TO.N,VCC*
X32160000Y-47221500D03*
D16*
G04 #@! TO.N,Net-(C2-Pad1)*
G04 #@! TO.C,R3*
G36*
X33259505Y-51135204D02*
X33283773Y-51138804D01*
X33307572Y-51144765D01*
X33330671Y-51153030D01*
X33352850Y-51163520D01*
X33373893Y-51176132D01*
X33393599Y-51190747D01*
X33411777Y-51207223D01*
X33428253Y-51225401D01*
X33442868Y-51245107D01*
X33455480Y-51266150D01*
X33465970Y-51288329D01*
X33474235Y-51311428D01*
X33480196Y-51335227D01*
X33483796Y-51359495D01*
X33485000Y-51383999D01*
X33485000Y-52409001D01*
X33483796Y-52433505D01*
X33480196Y-52457773D01*
X33474235Y-52481572D01*
X33465970Y-52504671D01*
X33455480Y-52526850D01*
X33442868Y-52547893D01*
X33428253Y-52567599D01*
X33411777Y-52585777D01*
X33393599Y-52602253D01*
X33373893Y-52616868D01*
X33352850Y-52629480D01*
X33330671Y-52639970D01*
X33307572Y-52648235D01*
X33283773Y-52654196D01*
X33259505Y-52657796D01*
X33235001Y-52659000D01*
X31084999Y-52659000D01*
X31060495Y-52657796D01*
X31036227Y-52654196D01*
X31012428Y-52648235D01*
X30989329Y-52639970D01*
X30967150Y-52629480D01*
X30946107Y-52616868D01*
X30926401Y-52602253D01*
X30908223Y-52585777D01*
X30891747Y-52567599D01*
X30877132Y-52547893D01*
X30864520Y-52526850D01*
X30854030Y-52504671D01*
X30845765Y-52481572D01*
X30839804Y-52457773D01*
X30836204Y-52433505D01*
X30835000Y-52409001D01*
X30835000Y-51383999D01*
X30836204Y-51359495D01*
X30839804Y-51335227D01*
X30845765Y-51311428D01*
X30854030Y-51288329D01*
X30864520Y-51266150D01*
X30877132Y-51245107D01*
X30891747Y-51225401D01*
X30908223Y-51207223D01*
X30926401Y-51190747D01*
X30946107Y-51176132D01*
X30967150Y-51163520D01*
X30989329Y-51153030D01*
X31012428Y-51144765D01*
X31036227Y-51138804D01*
X31060495Y-51135204D01*
X31084999Y-51134000D01*
X33235001Y-51134000D01*
X33259505Y-51135204D01*
X33259505Y-51135204D01*
G37*
D17*
G04 #@! TD*
G04 #@! TO.P,R3,1*
G04 #@! TO.N,Net-(C2-Pad1)*
X32160000Y-51896500D03*
D16*
G04 #@! TO.N,VCC*
G04 #@! TO.C,R4*
G36*
X53071505Y-46587204D02*
X53095773Y-46590804D01*
X53119572Y-46596765D01*
X53142671Y-46605030D01*
X53164850Y-46615520D01*
X53185893Y-46628132D01*
X53205599Y-46642747D01*
X53223777Y-46659223D01*
X53240253Y-46677401D01*
X53254868Y-46697107D01*
X53267480Y-46718150D01*
X53277970Y-46740329D01*
X53286235Y-46763428D01*
X53292196Y-46787227D01*
X53295796Y-46811495D01*
X53297000Y-46835999D01*
X53297000Y-47861001D01*
X53295796Y-47885505D01*
X53292196Y-47909773D01*
X53286235Y-47933572D01*
X53277970Y-47956671D01*
X53267480Y-47978850D01*
X53254868Y-47999893D01*
X53240253Y-48019599D01*
X53223777Y-48037777D01*
X53205599Y-48054253D01*
X53185893Y-48068868D01*
X53164850Y-48081480D01*
X53142671Y-48091970D01*
X53119572Y-48100235D01*
X53095773Y-48106196D01*
X53071505Y-48109796D01*
X53047001Y-48111000D01*
X50896999Y-48111000D01*
X50872495Y-48109796D01*
X50848227Y-48106196D01*
X50824428Y-48100235D01*
X50801329Y-48091970D01*
X50779150Y-48081480D01*
X50758107Y-48068868D01*
X50738401Y-48054253D01*
X50720223Y-48037777D01*
X50703747Y-48019599D01*
X50689132Y-47999893D01*
X50676520Y-47978850D01*
X50666030Y-47956671D01*
X50657765Y-47933572D01*
X50651804Y-47909773D01*
X50648204Y-47885505D01*
X50647000Y-47861001D01*
X50647000Y-46835999D01*
X50648204Y-46811495D01*
X50651804Y-46787227D01*
X50657765Y-46763428D01*
X50666030Y-46740329D01*
X50676520Y-46718150D01*
X50689132Y-46697107D01*
X50703747Y-46677401D01*
X50720223Y-46659223D01*
X50738401Y-46642747D01*
X50758107Y-46628132D01*
X50779150Y-46615520D01*
X50801329Y-46605030D01*
X50824428Y-46596765D01*
X50848227Y-46590804D01*
X50872495Y-46587204D01*
X50896999Y-46586000D01*
X53047001Y-46586000D01*
X53071505Y-46587204D01*
X53071505Y-46587204D01*
G37*
D17*
G04 #@! TD*
G04 #@! TO.P,R4,1*
G04 #@! TO.N,VCC*
X51972000Y-47348500D03*
D16*
G04 #@! TO.N,Net-(C1-Pad1)*
G04 #@! TO.C,R4*
G36*
X53071505Y-51262204D02*
X53095773Y-51265804D01*
X53119572Y-51271765D01*
X53142671Y-51280030D01*
X53164850Y-51290520D01*
X53185893Y-51303132D01*
X53205599Y-51317747D01*
X53223777Y-51334223D01*
X53240253Y-51352401D01*
X53254868Y-51372107D01*
X53267480Y-51393150D01*
X53277970Y-51415329D01*
X53286235Y-51438428D01*
X53292196Y-51462227D01*
X53295796Y-51486495D01*
X53297000Y-51510999D01*
X53297000Y-52536001D01*
X53295796Y-52560505D01*
X53292196Y-52584773D01*
X53286235Y-52608572D01*
X53277970Y-52631671D01*
X53267480Y-52653850D01*
X53254868Y-52674893D01*
X53240253Y-52694599D01*
X53223777Y-52712777D01*
X53205599Y-52729253D01*
X53185893Y-52743868D01*
X53164850Y-52756480D01*
X53142671Y-52766970D01*
X53119572Y-52775235D01*
X53095773Y-52781196D01*
X53071505Y-52784796D01*
X53047001Y-52786000D01*
X50896999Y-52786000D01*
X50872495Y-52784796D01*
X50848227Y-52781196D01*
X50824428Y-52775235D01*
X50801329Y-52766970D01*
X50779150Y-52756480D01*
X50758107Y-52743868D01*
X50738401Y-52729253D01*
X50720223Y-52712777D01*
X50703747Y-52694599D01*
X50689132Y-52674893D01*
X50676520Y-52653850D01*
X50666030Y-52631671D01*
X50657765Y-52608572D01*
X50651804Y-52584773D01*
X50648204Y-52560505D01*
X50647000Y-52536001D01*
X50647000Y-51510999D01*
X50648204Y-51486495D01*
X50651804Y-51462227D01*
X50657765Y-51438428D01*
X50666030Y-51415329D01*
X50676520Y-51393150D01*
X50689132Y-51372107D01*
X50703747Y-51352401D01*
X50720223Y-51334223D01*
X50738401Y-51317747D01*
X50758107Y-51303132D01*
X50779150Y-51290520D01*
X50801329Y-51280030D01*
X50824428Y-51271765D01*
X50848227Y-51265804D01*
X50872495Y-51262204D01*
X50896999Y-51261000D01*
X53047001Y-51261000D01*
X53071505Y-51262204D01*
X53071505Y-51262204D01*
G37*
D17*
G04 #@! TD*
G04 #@! TO.P,R4,2*
G04 #@! TO.N,Net-(C1-Pad1)*
X51972000Y-52023500D03*
D16*
G04 #@! TO.N,Net-(C2-Pad2)*
G04 #@! TO.C,R5*
G36*
X40244505Y-46587204D02*
X40268773Y-46590804D01*
X40292572Y-46596765D01*
X40315671Y-46605030D01*
X40337850Y-46615520D01*
X40358893Y-46628132D01*
X40378599Y-46642747D01*
X40396777Y-46659223D01*
X40413253Y-46677401D01*
X40427868Y-46697107D01*
X40440480Y-46718150D01*
X40450970Y-46740329D01*
X40459235Y-46763428D01*
X40465196Y-46787227D01*
X40468796Y-46811495D01*
X40470000Y-46835999D01*
X40470000Y-47861001D01*
X40468796Y-47885505D01*
X40465196Y-47909773D01*
X40459235Y-47933572D01*
X40450970Y-47956671D01*
X40440480Y-47978850D01*
X40427868Y-47999893D01*
X40413253Y-48019599D01*
X40396777Y-48037777D01*
X40378599Y-48054253D01*
X40358893Y-48068868D01*
X40337850Y-48081480D01*
X40315671Y-48091970D01*
X40292572Y-48100235D01*
X40268773Y-48106196D01*
X40244505Y-48109796D01*
X40220001Y-48111000D01*
X38069999Y-48111000D01*
X38045495Y-48109796D01*
X38021227Y-48106196D01*
X37997428Y-48100235D01*
X37974329Y-48091970D01*
X37952150Y-48081480D01*
X37931107Y-48068868D01*
X37911401Y-48054253D01*
X37893223Y-48037777D01*
X37876747Y-48019599D01*
X37862132Y-47999893D01*
X37849520Y-47978850D01*
X37839030Y-47956671D01*
X37830765Y-47933572D01*
X37824804Y-47909773D01*
X37821204Y-47885505D01*
X37820000Y-47861001D01*
X37820000Y-46835999D01*
X37821204Y-46811495D01*
X37824804Y-46787227D01*
X37830765Y-46763428D01*
X37839030Y-46740329D01*
X37849520Y-46718150D01*
X37862132Y-46697107D01*
X37876747Y-46677401D01*
X37893223Y-46659223D01*
X37911401Y-46642747D01*
X37931107Y-46628132D01*
X37952150Y-46615520D01*
X37974329Y-46605030D01*
X37997428Y-46596765D01*
X38021227Y-46590804D01*
X38045495Y-46587204D01*
X38069999Y-46586000D01*
X40220001Y-46586000D01*
X40244505Y-46587204D01*
X40244505Y-46587204D01*
G37*
D17*
G04 #@! TD*
G04 #@! TO.P,R5,2*
G04 #@! TO.N,Net-(C2-Pad2)*
X39145000Y-47348500D03*
D16*
G04 #@! TO.N,VCC*
G04 #@! TO.C,R5*
G36*
X40244505Y-51262204D02*
X40268773Y-51265804D01*
X40292572Y-51271765D01*
X40315671Y-51280030D01*
X40337850Y-51290520D01*
X40358893Y-51303132D01*
X40378599Y-51317747D01*
X40396777Y-51334223D01*
X40413253Y-51352401D01*
X40427868Y-51372107D01*
X40440480Y-51393150D01*
X40450970Y-51415329D01*
X40459235Y-51438428D01*
X40465196Y-51462227D01*
X40468796Y-51486495D01*
X40470000Y-51510999D01*
X40470000Y-52536001D01*
X40468796Y-52560505D01*
X40465196Y-52584773D01*
X40459235Y-52608572D01*
X40450970Y-52631671D01*
X40440480Y-52653850D01*
X40427868Y-52674893D01*
X40413253Y-52694599D01*
X40396777Y-52712777D01*
X40378599Y-52729253D01*
X40358893Y-52743868D01*
X40337850Y-52756480D01*
X40315671Y-52766970D01*
X40292572Y-52775235D01*
X40268773Y-52781196D01*
X40244505Y-52784796D01*
X40220001Y-52786000D01*
X38069999Y-52786000D01*
X38045495Y-52784796D01*
X38021227Y-52781196D01*
X37997428Y-52775235D01*
X37974329Y-52766970D01*
X37952150Y-52756480D01*
X37931107Y-52743868D01*
X37911401Y-52729253D01*
X37893223Y-52712777D01*
X37876747Y-52694599D01*
X37862132Y-52674893D01*
X37849520Y-52653850D01*
X37839030Y-52631671D01*
X37830765Y-52608572D01*
X37824804Y-52584773D01*
X37821204Y-52560505D01*
X37820000Y-52536001D01*
X37820000Y-51510999D01*
X37821204Y-51486495D01*
X37824804Y-51462227D01*
X37830765Y-51438428D01*
X37839030Y-51415329D01*
X37849520Y-51393150D01*
X37862132Y-51372107D01*
X37876747Y-51352401D01*
X37893223Y-51334223D01*
X37911401Y-51317747D01*
X37931107Y-51303132D01*
X37952150Y-51290520D01*
X37974329Y-51280030D01*
X37997428Y-51271765D01*
X38021227Y-51265804D01*
X38045495Y-51262204D01*
X38069999Y-51261000D01*
X40220001Y-51261000D01*
X40244505Y-51262204D01*
X40244505Y-51262204D01*
G37*
D17*
G04 #@! TD*
G04 #@! TO.P,R5,1*
G04 #@! TO.N,VCC*
X39145000Y-52023500D03*
D16*
G04 #@! TO.N,Net-(D7-Pad1)*
G04 #@! TO.C,R6*
G36*
X54997505Y-38202204D02*
X55021773Y-38205804D01*
X55045572Y-38211765D01*
X55068671Y-38220030D01*
X55090850Y-38230520D01*
X55111893Y-38243132D01*
X55131599Y-38257747D01*
X55149777Y-38274223D01*
X55166253Y-38292401D01*
X55180868Y-38312107D01*
X55193480Y-38333150D01*
X55203970Y-38355329D01*
X55212235Y-38378428D01*
X55218196Y-38402227D01*
X55221796Y-38426495D01*
X55223000Y-38450999D01*
X55223000Y-40601001D01*
X55221796Y-40625505D01*
X55218196Y-40649773D01*
X55212235Y-40673572D01*
X55203970Y-40696671D01*
X55193480Y-40718850D01*
X55180868Y-40739893D01*
X55166253Y-40759599D01*
X55149777Y-40777777D01*
X55131599Y-40794253D01*
X55111893Y-40808868D01*
X55090850Y-40821480D01*
X55068671Y-40831970D01*
X55045572Y-40840235D01*
X55021773Y-40846196D01*
X54997505Y-40849796D01*
X54973001Y-40851000D01*
X53947999Y-40851000D01*
X53923495Y-40849796D01*
X53899227Y-40846196D01*
X53875428Y-40840235D01*
X53852329Y-40831970D01*
X53830150Y-40821480D01*
X53809107Y-40808868D01*
X53789401Y-40794253D01*
X53771223Y-40777777D01*
X53754747Y-40759599D01*
X53740132Y-40739893D01*
X53727520Y-40718850D01*
X53717030Y-40696671D01*
X53708765Y-40673572D01*
X53702804Y-40649773D01*
X53699204Y-40625505D01*
X53698000Y-40601001D01*
X53698000Y-38450999D01*
X53699204Y-38426495D01*
X53702804Y-38402227D01*
X53708765Y-38378428D01*
X53717030Y-38355329D01*
X53727520Y-38333150D01*
X53740132Y-38312107D01*
X53754747Y-38292401D01*
X53771223Y-38274223D01*
X53789401Y-38257747D01*
X53809107Y-38243132D01*
X53830150Y-38230520D01*
X53852329Y-38220030D01*
X53875428Y-38211765D01*
X53899227Y-38205804D01*
X53923495Y-38202204D01*
X53947999Y-38201000D01*
X54973001Y-38201000D01*
X54997505Y-38202204D01*
X54997505Y-38202204D01*
G37*
D17*
G04 #@! TD*
G04 #@! TO.P,R6,1*
G04 #@! TO.N,Net-(D7-Pad1)*
X54460500Y-39526000D03*
D16*
G04 #@! TO.N,Net-(C2-Pad2)*
G04 #@! TO.C,R6*
G36*
X59672505Y-38202204D02*
X59696773Y-38205804D01*
X59720572Y-38211765D01*
X59743671Y-38220030D01*
X59765850Y-38230520D01*
X59786893Y-38243132D01*
X59806599Y-38257747D01*
X59824777Y-38274223D01*
X59841253Y-38292401D01*
X59855868Y-38312107D01*
X59868480Y-38333150D01*
X59878970Y-38355329D01*
X59887235Y-38378428D01*
X59893196Y-38402227D01*
X59896796Y-38426495D01*
X59898000Y-38450999D01*
X59898000Y-40601001D01*
X59896796Y-40625505D01*
X59893196Y-40649773D01*
X59887235Y-40673572D01*
X59878970Y-40696671D01*
X59868480Y-40718850D01*
X59855868Y-40739893D01*
X59841253Y-40759599D01*
X59824777Y-40777777D01*
X59806599Y-40794253D01*
X59786893Y-40808868D01*
X59765850Y-40821480D01*
X59743671Y-40831970D01*
X59720572Y-40840235D01*
X59696773Y-40846196D01*
X59672505Y-40849796D01*
X59648001Y-40851000D01*
X58622999Y-40851000D01*
X58598495Y-40849796D01*
X58574227Y-40846196D01*
X58550428Y-40840235D01*
X58527329Y-40831970D01*
X58505150Y-40821480D01*
X58484107Y-40808868D01*
X58464401Y-40794253D01*
X58446223Y-40777777D01*
X58429747Y-40759599D01*
X58415132Y-40739893D01*
X58402520Y-40718850D01*
X58392030Y-40696671D01*
X58383765Y-40673572D01*
X58377804Y-40649773D01*
X58374204Y-40625505D01*
X58373000Y-40601001D01*
X58373000Y-38450999D01*
X58374204Y-38426495D01*
X58377804Y-38402227D01*
X58383765Y-38378428D01*
X58392030Y-38355329D01*
X58402520Y-38333150D01*
X58415132Y-38312107D01*
X58429747Y-38292401D01*
X58446223Y-38274223D01*
X58464401Y-38257747D01*
X58484107Y-38243132D01*
X58505150Y-38230520D01*
X58527329Y-38220030D01*
X58550428Y-38211765D01*
X58574227Y-38205804D01*
X58598495Y-38202204D01*
X58622999Y-38201000D01*
X59648001Y-38201000D01*
X59672505Y-38202204D01*
X59672505Y-38202204D01*
G37*
D17*
G04 #@! TD*
G04 #@! TO.P,R6,2*
G04 #@! TO.N,Net-(C2-Pad2)*
X59135500Y-39526000D03*
D10*
G04 #@! TO.P,D1,2*
G04 #@! TO.N,VCC*
X23460000Y-29500000D03*
D11*
G04 #@! TO.P,D1,1*
G04 #@! TO.N,Net-(D1-Pad1)*
X26000000Y-29500000D03*
G04 #@! TD*
D10*
G04 #@! TO.P,D2,2*
G04 #@! TO.N,Net-(D1-Pad1)*
X33460000Y-29500000D03*
D11*
G04 #@! TO.P,D2,1*
G04 #@! TO.N,Net-(D2-Pad1)*
X36000000Y-29500000D03*
G04 #@! TD*
G04 #@! TO.P,D3,1*
G04 #@! TO.N,Net-(D3-Pad1)*
X46000000Y-29500000D03*
D10*
G04 #@! TO.P,D3,2*
G04 #@! TO.N,Net-(D2-Pad1)*
X43460000Y-29500000D03*
G04 #@! TD*
D11*
G04 #@! TO.P,D4,1*
G04 #@! TO.N,Net-(D4-Pad1)*
X30800000Y-39500000D03*
D10*
G04 #@! TO.P,D4,2*
G04 #@! TO.N,VCC*
X28260000Y-39500000D03*
G04 #@! TD*
D11*
G04 #@! TO.P,D5,1*
G04 #@! TO.N,Net-(D5-Pad1)*
X36000000Y-39500000D03*
D10*
G04 #@! TO.P,D5,2*
G04 #@! TO.N,Net-(D4-Pad1)*
X33460000Y-39500000D03*
G04 #@! TD*
D11*
G04 #@! TO.P,D7,1*
G04 #@! TO.N,Net-(D7-Pad1)*
X51200000Y-39500000D03*
D10*
G04 #@! TO.P,D7,2*
G04 #@! TO.N,Net-(D6-Pad1)*
X48660000Y-39500000D03*
G04 #@! TD*
D18*
G04 #@! TO.N,VCC*
X36962000Y-52023500D02*
X39145000Y-52023500D01*
X32160000Y-47221500D02*
X36962000Y-52023500D01*
X50170000Y-47348500D02*
X45495000Y-52023500D01*
X51972000Y-47348500D02*
X50170000Y-47348500D01*
X41147000Y-81924000D02*
X42447000Y-81924000D01*
X42447000Y-66724000D02*
X43747000Y-66724000D01*
D19*
X49330400Y-77956200D02*
X45362600Y-81924000D01*
X49330400Y-70768000D02*
X49330400Y-77956200D01*
X45286400Y-66724000D02*
X49330400Y-70768000D01*
X45362600Y-81924000D02*
X42447000Y-81924000D01*
X43747000Y-66724000D02*
X45286400Y-66724000D01*
D18*
X67033500Y-47348500D02*
X51972000Y-47348500D01*
X71022000Y-51337000D02*
X67033500Y-47348500D01*
X68990000Y-61370000D02*
X71022000Y-59338000D01*
X43747000Y-66724000D02*
X43747000Y-61853000D01*
X44230000Y-61370000D02*
X68990000Y-61370000D01*
X71022000Y-59338000D02*
X71022000Y-51337000D01*
X43747000Y-61853000D02*
X44230000Y-61370000D01*
X17400000Y-48000000D02*
X18178500Y-47221500D01*
X17400000Y-57400000D02*
X17400000Y-48000000D01*
X18178500Y-47221500D02*
X19800000Y-47221500D01*
X41147000Y-66724000D02*
X41147000Y-61747000D01*
X39600000Y-60200000D02*
X20200000Y-60200000D01*
X42447000Y-66724000D02*
X41147000Y-66724000D01*
X41147000Y-61747000D02*
X39600000Y-60200000D01*
X20200000Y-60200000D02*
X17400000Y-57400000D01*
X19800000Y-47221500D02*
X19178500Y-47221500D01*
X32160000Y-47221500D02*
X19800000Y-47221500D01*
X23460000Y-34700000D02*
X28260000Y-39500000D01*
X23460000Y-29500000D02*
X23460000Y-34700000D01*
X28260000Y-43321500D02*
X28260000Y-39500000D01*
X32160000Y-47221500D02*
X28260000Y-43321500D01*
G04 #@! TO.N,GND*
X39653000Y-58002000D02*
X40735000Y-58002000D01*
X34049000Y-58002000D02*
X39653000Y-58002000D01*
X39653000Y-58002000D02*
X39846000Y-58002000D01*
X40735000Y-58002000D02*
X42635000Y-56102000D01*
X42635000Y-56102000D02*
X49112000Y-56102000D01*
X61425010Y-38891000D02*
X61425010Y-38686820D01*
X61425010Y-41313180D02*
X61425010Y-38891000D01*
X60095180Y-42643010D02*
X61425010Y-41313180D01*
X43139990Y-42643010D02*
X60095180Y-42643010D01*
X42574000Y-43209000D02*
X43139990Y-42643010D01*
X42574000Y-56041000D02*
X42574000Y-43209000D01*
X42635000Y-56102000D02*
X42574000Y-56041000D01*
X33582400Y-65459400D02*
X42447000Y-74324000D01*
X33582400Y-62382400D02*
X33582400Y-65459400D01*
X56925000Y-12729000D02*
X13618000Y-12729000D01*
X13618000Y-12729000D02*
X12729000Y-13618000D01*
X14786400Y-61243000D02*
X32443000Y-61243000D01*
X12729000Y-13618000D02*
X12729000Y-59185600D01*
X58017200Y-13821200D02*
X56925000Y-12729000D01*
X58017200Y-31855200D02*
X58017200Y-13821200D01*
X32443000Y-61243000D02*
X33582400Y-62382400D01*
X12729000Y-59185600D02*
X14786400Y-61243000D01*
X61425010Y-35263010D02*
X58017200Y-31855200D01*
X61425010Y-38891000D02*
X61425010Y-35263010D01*
G04 #@! TO.N,Net-(C1-Pad1)*
X52437500Y-51558000D02*
X51972000Y-52023500D01*
X63021000Y-51558000D02*
X52437500Y-51558000D01*
X50625800Y-60310390D02*
X50480590Y-60310390D01*
X65426810Y-60310390D02*
X50625800Y-60310390D01*
X68177200Y-55664200D02*
X68177200Y-57560000D01*
X68177200Y-57560000D02*
X65426810Y-60310390D01*
X64071000Y-51558000D02*
X68177200Y-55664200D01*
X63021000Y-51558000D02*
X64071000Y-51558000D01*
X33999000Y-56102000D02*
X34049000Y-56102000D01*
X33049000Y-57052000D02*
X33999000Y-56102000D01*
X48127010Y-59200000D02*
X33393600Y-59200000D01*
X33049000Y-58855400D02*
X33049000Y-57052000D01*
X33393600Y-59200000D02*
X33049000Y-58855400D01*
X49237400Y-60310390D02*
X48127010Y-59200000D01*
X50625800Y-60310390D02*
X49237400Y-60310390D01*
G04 #@! TO.N,Net-(C1-Pad2)*
X51415000Y-56958000D02*
X51321000Y-57052000D01*
X63021000Y-56958000D02*
X51415000Y-56958000D01*
X43056600Y-49786900D02*
X45495000Y-47348500D01*
X43056600Y-53292800D02*
X43056600Y-49786900D01*
X49177000Y-54258000D02*
X44021800Y-54258000D01*
X51321000Y-56402000D02*
X49177000Y-54258000D01*
X51321000Y-57052000D02*
X51321000Y-56402000D01*
X44021800Y-54258000D02*
X43056600Y-53292800D01*
X62360600Y-43107400D02*
X62640000Y-42828000D01*
X62640000Y-31802500D02*
X60337500Y-29500000D01*
X62640000Y-42828000D02*
X62640000Y-31802500D01*
X49736100Y-43107400D02*
X62360600Y-43107400D01*
X45495000Y-47348500D02*
X49736100Y-43107400D01*
G04 #@! TO.N,Net-(C2-Pad2)*
X31955000Y-56958000D02*
X32049000Y-57052000D01*
X21619000Y-56958000D02*
X31955000Y-56958000D01*
X56468501Y-42192999D02*
X59135500Y-39526000D01*
X39145000Y-47348500D02*
X39145000Y-45977600D01*
X47425400Y-42192999D02*
X56468501Y-42192999D01*
X42929601Y-42192999D02*
X47425400Y-42192999D01*
X39145000Y-45977600D02*
X42929601Y-42192999D01*
X47017590Y-42192999D02*
X47425400Y-42192999D01*
X42116800Y-50320300D02*
X39145000Y-47348500D01*
X42116800Y-53267400D02*
X42116800Y-50320300D01*
X41177000Y-54207200D02*
X42116800Y-53267400D01*
X33049000Y-54207200D02*
X41177000Y-54207200D01*
X32049000Y-55207200D02*
X33049000Y-54207200D01*
X32049000Y-57052000D02*
X32049000Y-55207200D01*
G04 #@! TO.N,Net-(C2-Pad1)*
X21619000Y-51558000D02*
X21619000Y-50608000D01*
X31821500Y-51558000D02*
X32160000Y-51896500D01*
X21619000Y-51558000D02*
X31821500Y-51558000D01*
X20242000Y-51558000D02*
X21619000Y-51558000D01*
X17936000Y-53864000D02*
X20242000Y-51558000D01*
X48360400Y-60760400D02*
X47400000Y-59800000D01*
X67059600Y-60760400D02*
X48360400Y-60760400D01*
X17936000Y-57299590D02*
X17936000Y-53864000D01*
X39786400Y-59749989D02*
X20386399Y-59749989D01*
X47400000Y-59800000D02*
X39836411Y-59800000D01*
X69879000Y-52226000D02*
X69879000Y-57941000D01*
X66196000Y-48543000D02*
X69879000Y-52226000D01*
X39836411Y-59800000D02*
X39786400Y-59749989D01*
X55147000Y-49940000D02*
X56544000Y-48543000D01*
X50702000Y-49940000D02*
X55147000Y-49940000D01*
X49432000Y-51210000D02*
X50702000Y-49940000D01*
X69879000Y-57941000D02*
X67059600Y-60760400D01*
X56544000Y-48543000D02*
X66196000Y-48543000D01*
X49432000Y-53064200D02*
X49432000Y-51210000D01*
X64875200Y-54258000D02*
X50625800Y-54258000D01*
X20386399Y-59749989D02*
X17936000Y-57299590D01*
X50625800Y-54258000D02*
X49432000Y-53064200D01*
X66780200Y-56163000D02*
X64875200Y-54258000D01*
X66780200Y-57864800D02*
X66780200Y-56163000D01*
X64926000Y-59719000D02*
X66780200Y-57864800D01*
X49321000Y-58002000D02*
X50021000Y-58002000D01*
X51738000Y-59719000D02*
X64926000Y-59719000D01*
X50021000Y-58002000D02*
X51738000Y-59719000D01*
G04 #@! TO.N,Net-(D1-Pad1)*
X26000000Y-29500000D02*
X33460000Y-29500000D01*
G04 #@! TO.N,Net-(D2-Pad1)*
X36000000Y-29500000D02*
X43460000Y-29500000D01*
G04 #@! TO.N,Net-(D3-Pad1)*
X46000000Y-29500000D02*
X47150000Y-29500000D01*
X55662500Y-29500000D02*
X46000000Y-29500000D01*
G04 #@! TO.N,Net-(D4-Pad1)*
X31950000Y-39500000D02*
X33460000Y-39500000D01*
X30800000Y-39500000D02*
X31950000Y-39500000D01*
G04 #@! TO.N,Net-(D5-Pad1)*
X37150000Y-39500000D02*
X43460000Y-39500000D01*
X36000000Y-39500000D02*
X37150000Y-39500000D01*
G04 #@! TO.N,Net-(D6-Pad1)*
X48660000Y-39500000D02*
X46000000Y-39500000D01*
G04 #@! TO.N,Net-(D7-Pad1)*
X54434500Y-39500000D02*
X54460500Y-39526000D01*
X51200000Y-39500000D02*
X54434500Y-39500000D01*
G04 #@! TD*
D20*
G04 #@! TO.N,GND*
G36*
X46895901Y-4768475D02*
X46977201Y-4822798D01*
X47031525Y-4904101D01*
X47065000Y-5072390D01*
X47065001Y-11072388D01*
X47079123Y-11143384D01*
X47079123Y-11143391D01*
X47155243Y-11526074D01*
X47264990Y-11791027D01*
X47481762Y-12115451D01*
X47584586Y-12218274D01*
X47684549Y-12318237D01*
X48008973Y-12535010D01*
X48086576Y-12567154D01*
X48273926Y-12644757D01*
X48656609Y-12720877D01*
X48656611Y-12720877D01*
X48727612Y-12735000D01*
X69947636Y-12735000D01*
X70352940Y-12793044D01*
X70677504Y-12940614D01*
X70947607Y-13173350D01*
X71141532Y-13472539D01*
X71250970Y-13838479D01*
X71265001Y-14027286D01*
X71265000Y-50505198D01*
X67623831Y-46864030D01*
X67581429Y-46800571D01*
X67330037Y-46632596D01*
X67108352Y-46588500D01*
X67108347Y-46588500D01*
X67033500Y-46573612D01*
X66958653Y-46588500D01*
X53895210Y-46588500D01*
X53876127Y-46492564D01*
X53681586Y-46201414D01*
X53390436Y-46006873D01*
X53047001Y-45938560D01*
X50896999Y-45938560D01*
X50553564Y-46006873D01*
X50262414Y-46201414D01*
X50067873Y-46492564D01*
X50046881Y-46598101D01*
X49873463Y-46632596D01*
X49873461Y-46632597D01*
X49873462Y-46632597D01*
X49685526Y-46758171D01*
X49685524Y-46758173D01*
X49622071Y-46800571D01*
X49579673Y-46864024D01*
X45830139Y-50613560D01*
X44419999Y-50613560D01*
X44076564Y-50681873D01*
X43816600Y-50855576D01*
X43816600Y-50101701D01*
X45159862Y-48758440D01*
X46570001Y-48758440D01*
X46913436Y-48690127D01*
X47204586Y-48495586D01*
X47399127Y-48204436D01*
X47467440Y-47861001D01*
X47467440Y-46835999D01*
X47403542Y-46514759D01*
X50050902Y-43867400D01*
X62285753Y-43867400D01*
X62360600Y-43882288D01*
X62435447Y-43867400D01*
X62435452Y-43867400D01*
X62657137Y-43823304D01*
X62908529Y-43655329D01*
X62950931Y-43591870D01*
X63124470Y-43418331D01*
X63187929Y-43375929D01*
X63355904Y-43124537D01*
X63400000Y-42902852D01*
X63400000Y-42902848D01*
X63414888Y-42828001D01*
X63400000Y-42753154D01*
X63400000Y-31877348D01*
X63414888Y-31802500D01*
X63400000Y-31727652D01*
X63400000Y-31727648D01*
X63355904Y-31505963D01*
X63355904Y-31505962D01*
X63230329Y-31318027D01*
X63187929Y-31254571D01*
X63124473Y-31212171D01*
X61747440Y-29835139D01*
X61747440Y-28424999D01*
X61679127Y-28081564D01*
X61484586Y-27790414D01*
X61193436Y-27595873D01*
X60850001Y-27527560D01*
X59824999Y-27527560D01*
X59481564Y-27595873D01*
X59190414Y-27790414D01*
X58995873Y-28081564D01*
X58927560Y-28424999D01*
X58927560Y-30575001D01*
X58995873Y-30918436D01*
X59190414Y-31209586D01*
X59481564Y-31404127D01*
X59824999Y-31472440D01*
X60850001Y-31472440D01*
X61171240Y-31408542D01*
X61880001Y-32117303D01*
X61880000Y-42347400D01*
X57388901Y-42347400D01*
X58301760Y-41434542D01*
X58622999Y-41498440D01*
X59648001Y-41498440D01*
X59991436Y-41430127D01*
X60282586Y-41235586D01*
X60477127Y-40944436D01*
X60545440Y-40601001D01*
X60545440Y-38450999D01*
X60477127Y-38107564D01*
X60282586Y-37816414D01*
X59991436Y-37621873D01*
X59648001Y-37553560D01*
X58622999Y-37553560D01*
X58279564Y-37621873D01*
X57988414Y-37816414D01*
X57793873Y-38107564D01*
X57725560Y-38450999D01*
X57725560Y-39861138D01*
X56153700Y-41432999D01*
X55301997Y-41432999D01*
X55316436Y-41430127D01*
X55607586Y-41235586D01*
X55802127Y-40944436D01*
X55870440Y-40601001D01*
X55870440Y-38450999D01*
X55802127Y-38107564D01*
X55607586Y-37816414D01*
X55316436Y-37621873D01*
X54973001Y-37553560D01*
X53947999Y-37553560D01*
X53604564Y-37621873D01*
X53313414Y-37816414D01*
X53118873Y-38107564D01*
X53050560Y-38450999D01*
X53050560Y-38740000D01*
X52747440Y-38740000D01*
X52747440Y-38600000D01*
X52698157Y-38352235D01*
X52557809Y-38142191D01*
X52347765Y-38001843D01*
X52100000Y-37952560D01*
X50300000Y-37952560D01*
X50052235Y-38001843D01*
X49842191Y-38142191D01*
X49701843Y-38352235D01*
X49698725Y-38367908D01*
X49529507Y-38198690D01*
X48965330Y-37965000D01*
X48354670Y-37965000D01*
X47790493Y-38198690D01*
X47521184Y-38467999D01*
X47498157Y-38352235D01*
X47357809Y-38142191D01*
X47147765Y-38001843D01*
X46900000Y-37952560D01*
X45100000Y-37952560D01*
X44852235Y-38001843D01*
X44642191Y-38142191D01*
X44501843Y-38352235D01*
X44498725Y-38367908D01*
X44329507Y-38198690D01*
X43765330Y-37965000D01*
X43154670Y-37965000D01*
X42590493Y-38198690D01*
X42158690Y-38630493D01*
X42113331Y-38740000D01*
X37547440Y-38740000D01*
X37547440Y-38600000D01*
X37498157Y-38352235D01*
X37357809Y-38142191D01*
X37147765Y-38001843D01*
X36900000Y-37952560D01*
X35100000Y-37952560D01*
X34852235Y-38001843D01*
X34642191Y-38142191D01*
X34501843Y-38352235D01*
X34498725Y-38367908D01*
X34329507Y-38198690D01*
X33765330Y-37965000D01*
X33154670Y-37965000D01*
X32590493Y-38198690D01*
X32321184Y-38467999D01*
X32298157Y-38352235D01*
X32157809Y-38142191D01*
X31947765Y-38001843D01*
X31700000Y-37952560D01*
X29900000Y-37952560D01*
X29652235Y-38001843D01*
X29442191Y-38142191D01*
X29301843Y-38352235D01*
X29298725Y-38367908D01*
X29129507Y-38198690D01*
X28565330Y-37965000D01*
X27954670Y-37965000D01*
X27845162Y-38010360D01*
X24220000Y-34385199D01*
X24220000Y-30846669D01*
X24329507Y-30801310D01*
X24498725Y-30632092D01*
X24501843Y-30647765D01*
X24642191Y-30857809D01*
X24852235Y-30998157D01*
X25100000Y-31047440D01*
X26900000Y-31047440D01*
X27147765Y-30998157D01*
X27357809Y-30857809D01*
X27498157Y-30647765D01*
X27547440Y-30400000D01*
X27547440Y-30260000D01*
X32113331Y-30260000D01*
X32158690Y-30369507D01*
X32590493Y-30801310D01*
X33154670Y-31035000D01*
X33765330Y-31035000D01*
X34329507Y-30801310D01*
X34498725Y-30632092D01*
X34501843Y-30647765D01*
X34642191Y-30857809D01*
X34852235Y-30998157D01*
X35100000Y-31047440D01*
X36900000Y-31047440D01*
X37147765Y-30998157D01*
X37357809Y-30857809D01*
X37498157Y-30647765D01*
X37547440Y-30400000D01*
X37547440Y-30260000D01*
X42113331Y-30260000D01*
X42158690Y-30369507D01*
X42590493Y-30801310D01*
X43154670Y-31035000D01*
X43765330Y-31035000D01*
X44329507Y-30801310D01*
X44498725Y-30632092D01*
X44501843Y-30647765D01*
X44642191Y-30857809D01*
X44852235Y-30998157D01*
X45100000Y-31047440D01*
X46900000Y-31047440D01*
X47147765Y-30998157D01*
X47357809Y-30857809D01*
X47498157Y-30647765D01*
X47547440Y-30400000D01*
X47547440Y-30260000D01*
X54252560Y-30260000D01*
X54252560Y-30575001D01*
X54320873Y-30918436D01*
X54515414Y-31209586D01*
X54806564Y-31404127D01*
X55149999Y-31472440D01*
X56175001Y-31472440D01*
X56518436Y-31404127D01*
X56809586Y-31209586D01*
X57004127Y-30918436D01*
X57072440Y-30575001D01*
X57072440Y-28424999D01*
X57004127Y-28081564D01*
X56809586Y-27790414D01*
X56518436Y-27595873D01*
X56175001Y-27527560D01*
X55149999Y-27527560D01*
X54806564Y-27595873D01*
X54515414Y-27790414D01*
X54320873Y-28081564D01*
X54252560Y-28424999D01*
X54252560Y-28740000D01*
X47547440Y-28740000D01*
X47547440Y-28600000D01*
X47498157Y-28352235D01*
X47357809Y-28142191D01*
X47147765Y-28001843D01*
X46900000Y-27952560D01*
X45100000Y-27952560D01*
X44852235Y-28001843D01*
X44642191Y-28142191D01*
X44501843Y-28352235D01*
X44498725Y-28367908D01*
X44329507Y-28198690D01*
X43765330Y-27965000D01*
X43154670Y-27965000D01*
X42590493Y-28198690D01*
X42158690Y-28630493D01*
X42113331Y-28740000D01*
X37547440Y-28740000D01*
X37547440Y-28600000D01*
X37498157Y-28352235D01*
X37357809Y-28142191D01*
X37147765Y-28001843D01*
X36900000Y-27952560D01*
X35100000Y-27952560D01*
X34852235Y-28001843D01*
X34642191Y-28142191D01*
X34501843Y-28352235D01*
X34498725Y-28367908D01*
X34329507Y-28198690D01*
X33765330Y-27965000D01*
X33154670Y-27965000D01*
X32590493Y-28198690D01*
X32158690Y-28630493D01*
X32113331Y-28740000D01*
X27547440Y-28740000D01*
X27547440Y-28600000D01*
X27498157Y-28352235D01*
X27357809Y-28142191D01*
X27147765Y-28001843D01*
X26900000Y-27952560D01*
X25100000Y-27952560D01*
X24852235Y-28001843D01*
X24642191Y-28142191D01*
X24501843Y-28352235D01*
X24498725Y-28367908D01*
X24329507Y-28198690D01*
X23765330Y-27965000D01*
X23154670Y-27965000D01*
X22590493Y-28198690D01*
X22158690Y-28630493D01*
X21925000Y-29194670D01*
X21925000Y-29805330D01*
X22158690Y-30369507D01*
X22590493Y-30801310D01*
X22700000Y-30846669D01*
X22700001Y-34625148D01*
X22685112Y-34700000D01*
X22700001Y-34774852D01*
X22744097Y-34996537D01*
X22912072Y-35247929D01*
X22975528Y-35290329D01*
X26770360Y-39085162D01*
X26725000Y-39194670D01*
X26725000Y-39805330D01*
X26958690Y-40369507D01*
X27390493Y-40801310D01*
X27500001Y-40846670D01*
X27500000Y-43246653D01*
X27485112Y-43321500D01*
X27500000Y-43396347D01*
X27500000Y-43396351D01*
X27544096Y-43618036D01*
X27712071Y-43869429D01*
X27775530Y-43911831D01*
X30251458Y-46387760D01*
X30236790Y-46461500D01*
X18253346Y-46461500D01*
X18178499Y-46446612D01*
X18103652Y-46461500D01*
X18103648Y-46461500D01*
X17881963Y-46505596D01*
X17630571Y-46673571D01*
X17588171Y-46737027D01*
X16915528Y-47409671D01*
X16852072Y-47452071D01*
X16809672Y-47515527D01*
X16809671Y-47515528D01*
X16684097Y-47703463D01*
X16625112Y-48000000D01*
X16640001Y-48074852D01*
X16640000Y-57325153D01*
X16625112Y-57400000D01*
X16640000Y-57474847D01*
X16640000Y-57474851D01*
X16684096Y-57696536D01*
X16852071Y-57947929D01*
X16915530Y-57990331D01*
X19609670Y-60684472D01*
X19652071Y-60747929D01*
X19903463Y-60915904D01*
X20125148Y-60960000D01*
X20125153Y-60960000D01*
X20200000Y-60974888D01*
X20274847Y-60960000D01*
X39285199Y-60960000D01*
X40387001Y-62061804D01*
X40387000Y-64826560D01*
X39897000Y-64826560D01*
X39649235Y-64875843D01*
X39439191Y-65016191D01*
X39298843Y-65226235D01*
X39249560Y-65474000D01*
X39249560Y-67974000D01*
X39298843Y-68221765D01*
X39439191Y-68431809D01*
X39649235Y-68572157D01*
X39897000Y-68621440D01*
X41276083Y-68621440D01*
X39284200Y-69405843D01*
X39113567Y-69519857D01*
X38515354Y-70212749D01*
X42447000Y-74144395D01*
X46378646Y-70212749D01*
X45780433Y-69519857D01*
X43714755Y-68621440D01*
X44997000Y-68621440D01*
X45244765Y-68572157D01*
X45454809Y-68431809D01*
X45570095Y-68259273D01*
X48445400Y-71134579D01*
X48445401Y-77589620D01*
X45597418Y-80437603D01*
X45595157Y-80426235D01*
X45454809Y-80216191D01*
X45244765Y-80075843D01*
X44997000Y-80026560D01*
X43617917Y-80026560D01*
X45609800Y-79242157D01*
X45780433Y-79128143D01*
X46378646Y-78435251D01*
X42447000Y-74503605D01*
X38515354Y-78435251D01*
X39113567Y-79128143D01*
X41179245Y-80026560D01*
X39897000Y-80026560D01*
X39649235Y-80075843D01*
X39439191Y-80216191D01*
X39298843Y-80426235D01*
X39249560Y-80674000D01*
X39249560Y-83174000D01*
X39298843Y-83421765D01*
X39439191Y-83631809D01*
X39649235Y-83772157D01*
X39897000Y-83821440D01*
X44997000Y-83821440D01*
X45244765Y-83772157D01*
X45454809Y-83631809D01*
X45595157Y-83421765D01*
X45644440Y-83174000D01*
X45644440Y-82770277D01*
X45707910Y-82757652D01*
X46000649Y-82562049D01*
X46050025Y-82488153D01*
X49894556Y-78643623D01*
X49968449Y-78594249D01*
X50164052Y-78301510D01*
X50215400Y-78043365D01*
X50215400Y-78043361D01*
X50232737Y-77956200D01*
X50215400Y-77869039D01*
X50215400Y-70855161D01*
X50232737Y-70768000D01*
X50215400Y-70680839D01*
X50215400Y-70680835D01*
X50164052Y-70422690D01*
X50141454Y-70388870D01*
X50017824Y-70203845D01*
X50017823Y-70203844D01*
X49968449Y-70129951D01*
X49894556Y-70080577D01*
X45973825Y-66159847D01*
X45924449Y-66085951D01*
X45644440Y-65898854D01*
X45644440Y-65474000D01*
X45595157Y-65226235D01*
X45454809Y-65016191D01*
X45244765Y-64875843D01*
X44997000Y-64826560D01*
X44507000Y-64826560D01*
X44507000Y-62167801D01*
X44544801Y-62130000D01*
X52027707Y-62130000D01*
X51758285Y-62442679D01*
X51704518Y-62526752D01*
X51649774Y-62610092D01*
X51646007Y-62618243D01*
X51411302Y-63134451D01*
X51383297Y-63230221D01*
X51354140Y-63325590D01*
X51352812Y-63334470D01*
X51275240Y-63876135D01*
X51265000Y-63927613D01*
X51265001Y-65072388D01*
X51270351Y-65099287D01*
X51288989Y-65350088D01*
X51305091Y-65423323D01*
X51315265Y-65497597D01*
X51317785Y-65506215D01*
X51480261Y-66049500D01*
X51522110Y-66140068D01*
X51562835Y-66231111D01*
X51567673Y-66238676D01*
X51876101Y-66714521D01*
X51941691Y-66789708D01*
X52006328Y-66865657D01*
X52013094Y-66871560D01*
X52442679Y-67241715D01*
X52526742Y-67295476D01*
X52610091Y-67350226D01*
X52618238Y-67353990D01*
X52618241Y-67353992D01*
X52618244Y-67353993D01*
X53134451Y-67588698D01*
X53230231Y-67616706D01*
X53325590Y-67645860D01*
X53334468Y-67647188D01*
X53334470Y-67647188D01*
X53876131Y-67724760D01*
X53927612Y-67735000D01*
X65927610Y-67735000D01*
X66095901Y-67768475D01*
X66177201Y-67822798D01*
X66231525Y-67904101D01*
X66265000Y-68072390D01*
X66265001Y-68927609D01*
X66265000Y-68927613D01*
X66265001Y-69927609D01*
X66265000Y-69927613D01*
X66265001Y-71072388D01*
X66279123Y-71143384D01*
X66279123Y-71143391D01*
X66355243Y-71526074D01*
X66464990Y-71791027D01*
X66681762Y-72115451D01*
X66785823Y-72219511D01*
X66884549Y-72318237D01*
X67208973Y-72535010D01*
X67286576Y-72567154D01*
X67473926Y-72644757D01*
X67856609Y-72720877D01*
X67856611Y-72720877D01*
X67927612Y-72735000D01*
X70927610Y-72735000D01*
X71095901Y-72768475D01*
X71177201Y-72822798D01*
X71231525Y-72904101D01*
X71265000Y-73072390D01*
X71265001Y-73927609D01*
X71265000Y-73927613D01*
X71265001Y-84947629D01*
X71206956Y-85352938D01*
X71059385Y-85677504D01*
X70826650Y-85947606D01*
X70527459Y-86141532D01*
X70161525Y-86250970D01*
X69972727Y-86265000D01*
X14052364Y-86265000D01*
X13647062Y-86206956D01*
X13322496Y-86059385D01*
X13052394Y-85826650D01*
X12858468Y-85527459D01*
X12749030Y-85161525D01*
X12735000Y-84972727D01*
X12735000Y-75363949D01*
X36692865Y-75363949D01*
X37528843Y-77486800D01*
X37642857Y-77657433D01*
X38335749Y-78255646D01*
X42267395Y-74324000D01*
X42626605Y-74324000D01*
X46558251Y-78255646D01*
X47251143Y-77657433D01*
X48161099Y-75565224D01*
X48201135Y-73284051D01*
X47365157Y-71161200D01*
X47251143Y-70990567D01*
X46558251Y-70392354D01*
X42626605Y-74324000D01*
X42267395Y-74324000D01*
X38335749Y-70392354D01*
X37642857Y-70990567D01*
X36732901Y-73082776D01*
X36692865Y-75363949D01*
X12735000Y-75363949D01*
X12735000Y-73072390D01*
X12768475Y-72904099D01*
X12822798Y-72822799D01*
X12904101Y-72768475D01*
X13072390Y-72735000D01*
X16072388Y-72735000D01*
X16143389Y-72720877D01*
X16143391Y-72720877D01*
X16526074Y-72644757D01*
X16791027Y-72535010D01*
X17115451Y-72318238D01*
X17250641Y-72183046D01*
X17318237Y-72115451D01*
X17535010Y-71791027D01*
X17613451Y-71601652D01*
X17644757Y-71526074D01*
X17720877Y-71143391D01*
X17720877Y-71143389D01*
X17735000Y-71072388D01*
X17735000Y-68072390D01*
X17768475Y-67904099D01*
X17822798Y-67822799D01*
X17904101Y-67768475D01*
X18072390Y-67735000D01*
X30072388Y-67735000D01*
X30099295Y-67729648D01*
X30350088Y-67711011D01*
X30423323Y-67694909D01*
X30497597Y-67684735D01*
X30506215Y-67682215D01*
X31049500Y-67519739D01*
X31140068Y-67477890D01*
X31231111Y-67437165D01*
X31238676Y-67432327D01*
X31714521Y-67123899D01*
X31789708Y-67058309D01*
X31865657Y-66993672D01*
X31871560Y-66986906D01*
X32241715Y-66557321D01*
X32295476Y-66473258D01*
X32350226Y-66389909D01*
X32353992Y-66381758D01*
X32588698Y-65865549D01*
X32616706Y-65769769D01*
X32645860Y-65674410D01*
X32647188Y-65665530D01*
X32724760Y-65123869D01*
X32735000Y-65072388D01*
X32735000Y-63927612D01*
X32729648Y-63900705D01*
X32711011Y-63649912D01*
X32694909Y-63576677D01*
X32684735Y-63502403D01*
X32682215Y-63493785D01*
X32519738Y-62950500D01*
X32477890Y-62859932D01*
X32437164Y-62768889D01*
X32432327Y-62761324D01*
X32123899Y-62285478D01*
X32058310Y-62210293D01*
X31993672Y-62134343D01*
X31986906Y-62128440D01*
X31557321Y-61758285D01*
X31473248Y-61704518D01*
X31389908Y-61649774D01*
X31381757Y-61646007D01*
X30865549Y-61411302D01*
X30769779Y-61383297D01*
X30674410Y-61354140D01*
X30665530Y-61352812D01*
X30123869Y-61275240D01*
X30072388Y-61265000D01*
X14052364Y-61265000D01*
X13647062Y-61206956D01*
X13322496Y-61059385D01*
X13052394Y-60826650D01*
X12858468Y-60527459D01*
X12749030Y-60161525D01*
X12735000Y-59972727D01*
X12735000Y-14052364D01*
X12793044Y-13647060D01*
X12940614Y-13322496D01*
X13173350Y-13052393D01*
X13472539Y-12858468D01*
X13838479Y-12749030D01*
X14027273Y-12735000D01*
X37072388Y-12735000D01*
X37143389Y-12720877D01*
X37143391Y-12720877D01*
X37526074Y-12644757D01*
X37791027Y-12535010D01*
X38115451Y-12318238D01*
X38258278Y-12175410D01*
X38318237Y-12115451D01*
X38535010Y-11791027D01*
X38580743Y-11680617D01*
X38644757Y-11526074D01*
X38720877Y-11143391D01*
X38720877Y-11143389D01*
X38735000Y-11072388D01*
X38735000Y-8091919D01*
X39354405Y-8091919D01*
X39361075Y-8941209D01*
X39562946Y-9766186D01*
X39949188Y-10522596D01*
X40499082Y-11169863D01*
X41183131Y-11673267D01*
X41964641Y-12005804D01*
X42801691Y-12149635D01*
X43649378Y-12097046D01*
X44462230Y-11850857D01*
X45196646Y-11424274D01*
X45813228Y-10840181D01*
X46278903Y-10129909D01*
X46568690Y-9331560D01*
X46667044Y-8487957D01*
X46666592Y-8430358D01*
X46554999Y-7588404D01*
X46252708Y-6794705D01*
X45775934Y-6091835D01*
X45150253Y-5517499D01*
X44409228Y-5102505D01*
X43592608Y-4869114D01*
X42744200Y-4829846D01*
X41909513Y-4986807D01*
X41133323Y-5331578D01*
X40457265Y-5845664D01*
X39917605Y-6501489D01*
X39543292Y-7263873D01*
X39354405Y-8091919D01*
X38735000Y-8091919D01*
X38735000Y-5072390D01*
X38768475Y-4904099D01*
X38822798Y-4822799D01*
X38904101Y-4768475D01*
X39072390Y-4735000D01*
X46727610Y-4735000D01*
X46895901Y-4768475D01*
X46895901Y-4768475D01*
G37*
X46895901Y-4768475D02*
X46977201Y-4822798D01*
X47031525Y-4904101D01*
X47065000Y-5072390D01*
X47065001Y-11072388D01*
X47079123Y-11143384D01*
X47079123Y-11143391D01*
X47155243Y-11526074D01*
X47264990Y-11791027D01*
X47481762Y-12115451D01*
X47584586Y-12218274D01*
X47684549Y-12318237D01*
X48008973Y-12535010D01*
X48086576Y-12567154D01*
X48273926Y-12644757D01*
X48656609Y-12720877D01*
X48656611Y-12720877D01*
X48727612Y-12735000D01*
X69947636Y-12735000D01*
X70352940Y-12793044D01*
X70677504Y-12940614D01*
X70947607Y-13173350D01*
X71141532Y-13472539D01*
X71250970Y-13838479D01*
X71265001Y-14027286D01*
X71265000Y-50505198D01*
X67623831Y-46864030D01*
X67581429Y-46800571D01*
X67330037Y-46632596D01*
X67108352Y-46588500D01*
X67108347Y-46588500D01*
X67033500Y-46573612D01*
X66958653Y-46588500D01*
X53895210Y-46588500D01*
X53876127Y-46492564D01*
X53681586Y-46201414D01*
X53390436Y-46006873D01*
X53047001Y-45938560D01*
X50896999Y-45938560D01*
X50553564Y-46006873D01*
X50262414Y-46201414D01*
X50067873Y-46492564D01*
X50046881Y-46598101D01*
X49873463Y-46632596D01*
X49873461Y-46632597D01*
X49873462Y-46632597D01*
X49685526Y-46758171D01*
X49685524Y-46758173D01*
X49622071Y-46800571D01*
X49579673Y-46864024D01*
X45830139Y-50613560D01*
X44419999Y-50613560D01*
X44076564Y-50681873D01*
X43816600Y-50855576D01*
X43816600Y-50101701D01*
X45159862Y-48758440D01*
X46570001Y-48758440D01*
X46913436Y-48690127D01*
X47204586Y-48495586D01*
X47399127Y-48204436D01*
X47467440Y-47861001D01*
X47467440Y-46835999D01*
X47403542Y-46514759D01*
X50050902Y-43867400D01*
X62285753Y-43867400D01*
X62360600Y-43882288D01*
X62435447Y-43867400D01*
X62435452Y-43867400D01*
X62657137Y-43823304D01*
X62908529Y-43655329D01*
X62950931Y-43591870D01*
X63124470Y-43418331D01*
X63187929Y-43375929D01*
X63355904Y-43124537D01*
X63400000Y-42902852D01*
X63400000Y-42902848D01*
X63414888Y-42828001D01*
X63400000Y-42753154D01*
X63400000Y-31877348D01*
X63414888Y-31802500D01*
X63400000Y-31727652D01*
X63400000Y-31727648D01*
X63355904Y-31505963D01*
X63355904Y-31505962D01*
X63230329Y-31318027D01*
X63187929Y-31254571D01*
X63124473Y-31212171D01*
X61747440Y-29835139D01*
X61747440Y-28424999D01*
X61679127Y-28081564D01*
X61484586Y-27790414D01*
X61193436Y-27595873D01*
X60850001Y-27527560D01*
X59824999Y-27527560D01*
X59481564Y-27595873D01*
X59190414Y-27790414D01*
X58995873Y-28081564D01*
X58927560Y-28424999D01*
X58927560Y-30575001D01*
X58995873Y-30918436D01*
X59190414Y-31209586D01*
X59481564Y-31404127D01*
X59824999Y-31472440D01*
X60850001Y-31472440D01*
X61171240Y-31408542D01*
X61880001Y-32117303D01*
X61880000Y-42347400D01*
X57388901Y-42347400D01*
X58301760Y-41434542D01*
X58622999Y-41498440D01*
X59648001Y-41498440D01*
X59991436Y-41430127D01*
X60282586Y-41235586D01*
X60477127Y-40944436D01*
X60545440Y-40601001D01*
X60545440Y-38450999D01*
X60477127Y-38107564D01*
X60282586Y-37816414D01*
X59991436Y-37621873D01*
X59648001Y-37553560D01*
X58622999Y-37553560D01*
X58279564Y-37621873D01*
X57988414Y-37816414D01*
X57793873Y-38107564D01*
X57725560Y-38450999D01*
X57725560Y-39861138D01*
X56153700Y-41432999D01*
X55301997Y-41432999D01*
X55316436Y-41430127D01*
X55607586Y-41235586D01*
X55802127Y-40944436D01*
X55870440Y-40601001D01*
X55870440Y-38450999D01*
X55802127Y-38107564D01*
X55607586Y-37816414D01*
X55316436Y-37621873D01*
X54973001Y-37553560D01*
X53947999Y-37553560D01*
X53604564Y-37621873D01*
X53313414Y-37816414D01*
X53118873Y-38107564D01*
X53050560Y-38450999D01*
X53050560Y-38740000D01*
X52747440Y-38740000D01*
X52747440Y-38600000D01*
X52698157Y-38352235D01*
X52557809Y-38142191D01*
X52347765Y-38001843D01*
X52100000Y-37952560D01*
X50300000Y-37952560D01*
X50052235Y-38001843D01*
X49842191Y-38142191D01*
X49701843Y-38352235D01*
X49698725Y-38367908D01*
X49529507Y-38198690D01*
X48965330Y-37965000D01*
X48354670Y-37965000D01*
X47790493Y-38198690D01*
X47521184Y-38467999D01*
X47498157Y-38352235D01*
X47357809Y-38142191D01*
X47147765Y-38001843D01*
X46900000Y-37952560D01*
X45100000Y-37952560D01*
X44852235Y-38001843D01*
X44642191Y-38142191D01*
X44501843Y-38352235D01*
X44498725Y-38367908D01*
X44329507Y-38198690D01*
X43765330Y-37965000D01*
X43154670Y-37965000D01*
X42590493Y-38198690D01*
X42158690Y-38630493D01*
X42113331Y-38740000D01*
X37547440Y-38740000D01*
X37547440Y-38600000D01*
X37498157Y-38352235D01*
X37357809Y-38142191D01*
X37147765Y-38001843D01*
X36900000Y-37952560D01*
X35100000Y-37952560D01*
X34852235Y-38001843D01*
X34642191Y-38142191D01*
X34501843Y-38352235D01*
X34498725Y-38367908D01*
X34329507Y-38198690D01*
X33765330Y-37965000D01*
X33154670Y-37965000D01*
X32590493Y-38198690D01*
X32321184Y-38467999D01*
X32298157Y-38352235D01*
X32157809Y-38142191D01*
X31947765Y-38001843D01*
X31700000Y-37952560D01*
X29900000Y-37952560D01*
X29652235Y-38001843D01*
X29442191Y-38142191D01*
X29301843Y-38352235D01*
X29298725Y-38367908D01*
X29129507Y-38198690D01*
X28565330Y-37965000D01*
X27954670Y-37965000D01*
X27845162Y-38010360D01*
X24220000Y-34385199D01*
X24220000Y-30846669D01*
X24329507Y-30801310D01*
X24498725Y-30632092D01*
X24501843Y-30647765D01*
X24642191Y-30857809D01*
X24852235Y-30998157D01*
X25100000Y-31047440D01*
X26900000Y-31047440D01*
X27147765Y-30998157D01*
X27357809Y-30857809D01*
X27498157Y-30647765D01*
X27547440Y-30400000D01*
X27547440Y-30260000D01*
X32113331Y-30260000D01*
X32158690Y-30369507D01*
X32590493Y-30801310D01*
X33154670Y-31035000D01*
X33765330Y-31035000D01*
X34329507Y-30801310D01*
X34498725Y-30632092D01*
X34501843Y-30647765D01*
X34642191Y-30857809D01*
X34852235Y-30998157D01*
X35100000Y-31047440D01*
X36900000Y-31047440D01*
X37147765Y-30998157D01*
X37357809Y-30857809D01*
X37498157Y-30647765D01*
X37547440Y-30400000D01*
X37547440Y-30260000D01*
X42113331Y-30260000D01*
X42158690Y-30369507D01*
X42590493Y-30801310D01*
X43154670Y-31035000D01*
X43765330Y-31035000D01*
X44329507Y-30801310D01*
X44498725Y-30632092D01*
X44501843Y-30647765D01*
X44642191Y-30857809D01*
X44852235Y-30998157D01*
X45100000Y-31047440D01*
X46900000Y-31047440D01*
X47147765Y-30998157D01*
X47357809Y-30857809D01*
X47498157Y-30647765D01*
X47547440Y-30400000D01*
X47547440Y-30260000D01*
X54252560Y-30260000D01*
X54252560Y-30575001D01*
X54320873Y-30918436D01*
X54515414Y-31209586D01*
X54806564Y-31404127D01*
X55149999Y-31472440D01*
X56175001Y-31472440D01*
X56518436Y-31404127D01*
X56809586Y-31209586D01*
X57004127Y-30918436D01*
X57072440Y-30575001D01*
X57072440Y-28424999D01*
X57004127Y-28081564D01*
X56809586Y-27790414D01*
X56518436Y-27595873D01*
X56175001Y-27527560D01*
X55149999Y-27527560D01*
X54806564Y-27595873D01*
X54515414Y-27790414D01*
X54320873Y-28081564D01*
X54252560Y-28424999D01*
X54252560Y-28740000D01*
X47547440Y-28740000D01*
X47547440Y-28600000D01*
X47498157Y-28352235D01*
X47357809Y-28142191D01*
X47147765Y-28001843D01*
X46900000Y-27952560D01*
X45100000Y-27952560D01*
X44852235Y-28001843D01*
X44642191Y-28142191D01*
X44501843Y-28352235D01*
X44498725Y-28367908D01*
X44329507Y-28198690D01*
X43765330Y-27965000D01*
X43154670Y-27965000D01*
X42590493Y-28198690D01*
X42158690Y-28630493D01*
X42113331Y-28740000D01*
X37547440Y-28740000D01*
X37547440Y-28600000D01*
X37498157Y-28352235D01*
X37357809Y-28142191D01*
X37147765Y-28001843D01*
X36900000Y-27952560D01*
X35100000Y-27952560D01*
X34852235Y-28001843D01*
X34642191Y-28142191D01*
X34501843Y-28352235D01*
X34498725Y-28367908D01*
X34329507Y-28198690D01*
X33765330Y-27965000D01*
X33154670Y-27965000D01*
X32590493Y-28198690D01*
X32158690Y-28630493D01*
X32113331Y-28740000D01*
X27547440Y-28740000D01*
X27547440Y-28600000D01*
X27498157Y-28352235D01*
X27357809Y-28142191D01*
X27147765Y-28001843D01*
X26900000Y-27952560D01*
X25100000Y-27952560D01*
X24852235Y-28001843D01*
X24642191Y-28142191D01*
X24501843Y-28352235D01*
X24498725Y-28367908D01*
X24329507Y-28198690D01*
X23765330Y-27965000D01*
X23154670Y-27965000D01*
X22590493Y-28198690D01*
X22158690Y-28630493D01*
X21925000Y-29194670D01*
X21925000Y-29805330D01*
X22158690Y-30369507D01*
X22590493Y-30801310D01*
X22700000Y-30846669D01*
X22700001Y-34625148D01*
X22685112Y-34700000D01*
X22700001Y-34774852D01*
X22744097Y-34996537D01*
X22912072Y-35247929D01*
X22975528Y-35290329D01*
X26770360Y-39085162D01*
X26725000Y-39194670D01*
X26725000Y-39805330D01*
X26958690Y-40369507D01*
X27390493Y-40801310D01*
X27500001Y-40846670D01*
X27500000Y-43246653D01*
X27485112Y-43321500D01*
X27500000Y-43396347D01*
X27500000Y-43396351D01*
X27544096Y-43618036D01*
X27712071Y-43869429D01*
X27775530Y-43911831D01*
X30251458Y-46387760D01*
X30236790Y-46461500D01*
X18253346Y-46461500D01*
X18178499Y-46446612D01*
X18103652Y-46461500D01*
X18103648Y-46461500D01*
X17881963Y-46505596D01*
X17630571Y-46673571D01*
X17588171Y-46737027D01*
X16915528Y-47409671D01*
X16852072Y-47452071D01*
X16809672Y-47515527D01*
X16809671Y-47515528D01*
X16684097Y-47703463D01*
X16625112Y-48000000D01*
X16640001Y-48074852D01*
X16640000Y-57325153D01*
X16625112Y-57400000D01*
X16640000Y-57474847D01*
X16640000Y-57474851D01*
X16684096Y-57696536D01*
X16852071Y-57947929D01*
X16915530Y-57990331D01*
X19609670Y-60684472D01*
X19652071Y-60747929D01*
X19903463Y-60915904D01*
X20125148Y-60960000D01*
X20125153Y-60960000D01*
X20200000Y-60974888D01*
X20274847Y-60960000D01*
X39285199Y-60960000D01*
X40387001Y-62061804D01*
X40387000Y-64826560D01*
X39897000Y-64826560D01*
X39649235Y-64875843D01*
X39439191Y-65016191D01*
X39298843Y-65226235D01*
X39249560Y-65474000D01*
X39249560Y-67974000D01*
X39298843Y-68221765D01*
X39439191Y-68431809D01*
X39649235Y-68572157D01*
X39897000Y-68621440D01*
X41276083Y-68621440D01*
X39284200Y-69405843D01*
X39113567Y-69519857D01*
X38515354Y-70212749D01*
X42447000Y-74144395D01*
X46378646Y-70212749D01*
X45780433Y-69519857D01*
X43714755Y-68621440D01*
X44997000Y-68621440D01*
X45244765Y-68572157D01*
X45454809Y-68431809D01*
X45570095Y-68259273D01*
X48445400Y-71134579D01*
X48445401Y-77589620D01*
X45597418Y-80437603D01*
X45595157Y-80426235D01*
X45454809Y-80216191D01*
X45244765Y-80075843D01*
X44997000Y-80026560D01*
X43617917Y-80026560D01*
X45609800Y-79242157D01*
X45780433Y-79128143D01*
X46378646Y-78435251D01*
X42447000Y-74503605D01*
X38515354Y-78435251D01*
X39113567Y-79128143D01*
X41179245Y-80026560D01*
X39897000Y-80026560D01*
X39649235Y-80075843D01*
X39439191Y-80216191D01*
X39298843Y-80426235D01*
X39249560Y-80674000D01*
X39249560Y-83174000D01*
X39298843Y-83421765D01*
X39439191Y-83631809D01*
X39649235Y-83772157D01*
X39897000Y-83821440D01*
X44997000Y-83821440D01*
X45244765Y-83772157D01*
X45454809Y-83631809D01*
X45595157Y-83421765D01*
X45644440Y-83174000D01*
X45644440Y-82770277D01*
X45707910Y-82757652D01*
X46000649Y-82562049D01*
X46050025Y-82488153D01*
X49894556Y-78643623D01*
X49968449Y-78594249D01*
X50164052Y-78301510D01*
X50215400Y-78043365D01*
X50215400Y-78043361D01*
X50232737Y-77956200D01*
X50215400Y-77869039D01*
X50215400Y-70855161D01*
X50232737Y-70768000D01*
X50215400Y-70680839D01*
X50215400Y-70680835D01*
X50164052Y-70422690D01*
X50141454Y-70388870D01*
X50017824Y-70203845D01*
X50017823Y-70203844D01*
X49968449Y-70129951D01*
X49894556Y-70080577D01*
X45973825Y-66159847D01*
X45924449Y-66085951D01*
X45644440Y-65898854D01*
X45644440Y-65474000D01*
X45595157Y-65226235D01*
X45454809Y-65016191D01*
X45244765Y-64875843D01*
X44997000Y-64826560D01*
X44507000Y-64826560D01*
X44507000Y-62167801D01*
X44544801Y-62130000D01*
X52027707Y-62130000D01*
X51758285Y-62442679D01*
X51704518Y-62526752D01*
X51649774Y-62610092D01*
X51646007Y-62618243D01*
X51411302Y-63134451D01*
X51383297Y-63230221D01*
X51354140Y-63325590D01*
X51352812Y-63334470D01*
X51275240Y-63876135D01*
X51265000Y-63927613D01*
X51265001Y-65072388D01*
X51270351Y-65099287D01*
X51288989Y-65350088D01*
X51305091Y-65423323D01*
X51315265Y-65497597D01*
X51317785Y-65506215D01*
X51480261Y-66049500D01*
X51522110Y-66140068D01*
X51562835Y-66231111D01*
X51567673Y-66238676D01*
X51876101Y-66714521D01*
X51941691Y-66789708D01*
X52006328Y-66865657D01*
X52013094Y-66871560D01*
X52442679Y-67241715D01*
X52526742Y-67295476D01*
X52610091Y-67350226D01*
X52618238Y-67353990D01*
X52618241Y-67353992D01*
X52618244Y-67353993D01*
X53134451Y-67588698D01*
X53230231Y-67616706D01*
X53325590Y-67645860D01*
X53334468Y-67647188D01*
X53334470Y-67647188D01*
X53876131Y-67724760D01*
X53927612Y-67735000D01*
X65927610Y-67735000D01*
X66095901Y-67768475D01*
X66177201Y-67822798D01*
X66231525Y-67904101D01*
X66265000Y-68072390D01*
X66265001Y-68927609D01*
X66265000Y-68927613D01*
X66265001Y-69927609D01*
X66265000Y-69927613D01*
X66265001Y-71072388D01*
X66279123Y-71143384D01*
X66279123Y-71143391D01*
X66355243Y-71526074D01*
X66464990Y-71791027D01*
X66681762Y-72115451D01*
X66785823Y-72219511D01*
X66884549Y-72318237D01*
X67208973Y-72535010D01*
X67286576Y-72567154D01*
X67473926Y-72644757D01*
X67856609Y-72720877D01*
X67856611Y-72720877D01*
X67927612Y-72735000D01*
X70927610Y-72735000D01*
X71095901Y-72768475D01*
X71177201Y-72822798D01*
X71231525Y-72904101D01*
X71265000Y-73072390D01*
X71265001Y-73927609D01*
X71265000Y-73927613D01*
X71265001Y-84947629D01*
X71206956Y-85352938D01*
X71059385Y-85677504D01*
X70826650Y-85947606D01*
X70527459Y-86141532D01*
X70161525Y-86250970D01*
X69972727Y-86265000D01*
X14052364Y-86265000D01*
X13647062Y-86206956D01*
X13322496Y-86059385D01*
X13052394Y-85826650D01*
X12858468Y-85527459D01*
X12749030Y-85161525D01*
X12735000Y-84972727D01*
X12735000Y-75363949D01*
X36692865Y-75363949D01*
X37528843Y-77486800D01*
X37642857Y-77657433D01*
X38335749Y-78255646D01*
X42267395Y-74324000D01*
X42626605Y-74324000D01*
X46558251Y-78255646D01*
X47251143Y-77657433D01*
X48161099Y-75565224D01*
X48201135Y-73284051D01*
X47365157Y-71161200D01*
X47251143Y-70990567D01*
X46558251Y-70392354D01*
X42626605Y-74324000D01*
X42267395Y-74324000D01*
X38335749Y-70392354D01*
X37642857Y-70990567D01*
X36732901Y-73082776D01*
X36692865Y-75363949D01*
X12735000Y-75363949D01*
X12735000Y-73072390D01*
X12768475Y-72904099D01*
X12822798Y-72822799D01*
X12904101Y-72768475D01*
X13072390Y-72735000D01*
X16072388Y-72735000D01*
X16143389Y-72720877D01*
X16143391Y-72720877D01*
X16526074Y-72644757D01*
X16791027Y-72535010D01*
X17115451Y-72318238D01*
X17250641Y-72183046D01*
X17318237Y-72115451D01*
X17535010Y-71791027D01*
X17613451Y-71601652D01*
X17644757Y-71526074D01*
X17720877Y-71143391D01*
X17720877Y-71143389D01*
X17735000Y-71072388D01*
X17735000Y-68072390D01*
X17768475Y-67904099D01*
X17822798Y-67822799D01*
X17904101Y-67768475D01*
X18072390Y-67735000D01*
X30072388Y-67735000D01*
X30099295Y-67729648D01*
X30350088Y-67711011D01*
X30423323Y-67694909D01*
X30497597Y-67684735D01*
X30506215Y-67682215D01*
X31049500Y-67519739D01*
X31140068Y-67477890D01*
X31231111Y-67437165D01*
X31238676Y-67432327D01*
X31714521Y-67123899D01*
X31789708Y-67058309D01*
X31865657Y-66993672D01*
X31871560Y-66986906D01*
X32241715Y-66557321D01*
X32295476Y-66473258D01*
X32350226Y-66389909D01*
X32353992Y-66381758D01*
X32588698Y-65865549D01*
X32616706Y-65769769D01*
X32645860Y-65674410D01*
X32647188Y-65665530D01*
X32724760Y-65123869D01*
X32735000Y-65072388D01*
X32735000Y-63927612D01*
X32729648Y-63900705D01*
X32711011Y-63649912D01*
X32694909Y-63576677D01*
X32684735Y-63502403D01*
X32682215Y-63493785D01*
X32519738Y-62950500D01*
X32477890Y-62859932D01*
X32437164Y-62768889D01*
X32432327Y-62761324D01*
X32123899Y-62285478D01*
X32058310Y-62210293D01*
X31993672Y-62134343D01*
X31986906Y-62128440D01*
X31557321Y-61758285D01*
X31473248Y-61704518D01*
X31389908Y-61649774D01*
X31381757Y-61646007D01*
X30865549Y-61411302D01*
X30769779Y-61383297D01*
X30674410Y-61354140D01*
X30665530Y-61352812D01*
X30123869Y-61275240D01*
X30072388Y-61265000D01*
X14052364Y-61265000D01*
X13647062Y-61206956D01*
X13322496Y-61059385D01*
X13052394Y-60826650D01*
X12858468Y-60527459D01*
X12749030Y-60161525D01*
X12735000Y-59972727D01*
X12735000Y-14052364D01*
X12793044Y-13647060D01*
X12940614Y-13322496D01*
X13173350Y-13052393D01*
X13472539Y-12858468D01*
X13838479Y-12749030D01*
X14027273Y-12735000D01*
X37072388Y-12735000D01*
X37143389Y-12720877D01*
X37143391Y-12720877D01*
X37526074Y-12644757D01*
X37791027Y-12535010D01*
X38115451Y-12318238D01*
X38258278Y-12175410D01*
X38318237Y-12115451D01*
X38535010Y-11791027D01*
X38580743Y-11680617D01*
X38644757Y-11526074D01*
X38720877Y-11143391D01*
X38720877Y-11143389D01*
X38735000Y-11072388D01*
X38735000Y-8091919D01*
X39354405Y-8091919D01*
X39361075Y-8941209D01*
X39562946Y-9766186D01*
X39949188Y-10522596D01*
X40499082Y-11169863D01*
X41183131Y-11673267D01*
X41964641Y-12005804D01*
X42801691Y-12149635D01*
X43649378Y-12097046D01*
X44462230Y-11850857D01*
X45196646Y-11424274D01*
X45813228Y-10840181D01*
X46278903Y-10129909D01*
X46568690Y-9331560D01*
X46667044Y-8487957D01*
X46666592Y-8430358D01*
X46554999Y-7588404D01*
X46252708Y-6794705D01*
X45775934Y-6091835D01*
X45150253Y-5517499D01*
X44409228Y-5102505D01*
X43592608Y-4869114D01*
X42744200Y-4829846D01*
X41909513Y-4986807D01*
X41133323Y-5331578D01*
X40457265Y-5845664D01*
X39917605Y-6501489D01*
X39543292Y-7263873D01*
X39354405Y-8091919D01*
X38735000Y-8091919D01*
X38735000Y-5072390D01*
X38768475Y-4904099D01*
X38822798Y-4822799D01*
X38904101Y-4768475D01*
X39072390Y-4735000D01*
X46727610Y-4735000D01*
X46895901Y-4768475D01*
G36*
X43431470Y-54742472D02*
X43473871Y-54805929D01*
X43725263Y-54973904D01*
X43946948Y-55018000D01*
X43946953Y-55018000D01*
X44021800Y-55032888D01*
X44096647Y-55018000D01*
X48862199Y-55018000D01*
X48911199Y-55067000D01*
X48744691Y-55067000D01*
X48511302Y-55163673D01*
X48332673Y-55342301D01*
X48236000Y-55575690D01*
X48236000Y-55816250D01*
X48394750Y-55975000D01*
X49194000Y-55975000D01*
X49194000Y-55955000D01*
X49448000Y-55955000D01*
X49448000Y-55975000D01*
X49468000Y-55975000D01*
X49468000Y-56229000D01*
X49448000Y-56229000D01*
X49448000Y-56249000D01*
X49194000Y-56249000D01*
X49194000Y-56229000D01*
X48394750Y-56229000D01*
X48236000Y-56387750D01*
X48236000Y-56628310D01*
X48332673Y-56861699D01*
X48511302Y-57040327D01*
X48546694Y-57054987D01*
X48413191Y-57144191D01*
X48272843Y-57354235D01*
X48223560Y-57602000D01*
X48223560Y-58402000D01*
X48232324Y-58446059D01*
X48201862Y-58440000D01*
X48201857Y-58440000D01*
X48127010Y-58425112D01*
X48052163Y-58440000D01*
X35134000Y-58440000D01*
X35134000Y-58287750D01*
X34975250Y-58129000D01*
X34176000Y-58129000D01*
X34176000Y-58149000D01*
X33922000Y-58149000D01*
X33922000Y-58129000D01*
X33902000Y-58129000D01*
X33902000Y-57875000D01*
X33922000Y-57875000D01*
X33922000Y-57855000D01*
X34176000Y-57855000D01*
X34176000Y-57875000D01*
X34975250Y-57875000D01*
X35134000Y-57716250D01*
X35134000Y-57475690D01*
X35037327Y-57242301D01*
X34858698Y-57063673D01*
X34823306Y-57049013D01*
X34956809Y-56959809D01*
X35097157Y-56749765D01*
X35146440Y-56502000D01*
X35146440Y-55702000D01*
X35097157Y-55454235D01*
X34956809Y-55244191D01*
X34746765Y-55103843D01*
X34499000Y-55054560D01*
X33599000Y-55054560D01*
X33351235Y-55103843D01*
X33141191Y-55244191D01*
X33000843Y-55454235D01*
X32951560Y-55702000D01*
X32951560Y-56074639D01*
X32881996Y-56144202D01*
X32809000Y-56095427D01*
X32809000Y-55522001D01*
X33363802Y-54967200D01*
X41102153Y-54967200D01*
X41177000Y-54982088D01*
X41251847Y-54967200D01*
X41251852Y-54967200D01*
X41473537Y-54923104D01*
X41724929Y-54755129D01*
X41767331Y-54691670D01*
X42574000Y-53885001D01*
X43431470Y-54742472D01*
X43431470Y-54742472D01*
G37*
X43431470Y-54742472D02*
X43473871Y-54805929D01*
X43725263Y-54973904D01*
X43946948Y-55018000D01*
X43946953Y-55018000D01*
X44021800Y-55032888D01*
X44096647Y-55018000D01*
X48862199Y-55018000D01*
X48911199Y-55067000D01*
X48744691Y-55067000D01*
X48511302Y-55163673D01*
X48332673Y-55342301D01*
X48236000Y-55575690D01*
X48236000Y-55816250D01*
X48394750Y-55975000D01*
X49194000Y-55975000D01*
X49194000Y-55955000D01*
X49448000Y-55955000D01*
X49448000Y-55975000D01*
X49468000Y-55975000D01*
X49468000Y-56229000D01*
X49448000Y-56229000D01*
X49448000Y-56249000D01*
X49194000Y-56249000D01*
X49194000Y-56229000D01*
X48394750Y-56229000D01*
X48236000Y-56387750D01*
X48236000Y-56628310D01*
X48332673Y-56861699D01*
X48511302Y-57040327D01*
X48546694Y-57054987D01*
X48413191Y-57144191D01*
X48272843Y-57354235D01*
X48223560Y-57602000D01*
X48223560Y-58402000D01*
X48232324Y-58446059D01*
X48201862Y-58440000D01*
X48201857Y-58440000D01*
X48127010Y-58425112D01*
X48052163Y-58440000D01*
X35134000Y-58440000D01*
X35134000Y-58287750D01*
X34975250Y-58129000D01*
X34176000Y-58129000D01*
X34176000Y-58149000D01*
X33922000Y-58149000D01*
X33922000Y-58129000D01*
X33902000Y-58129000D01*
X33902000Y-57875000D01*
X33922000Y-57875000D01*
X33922000Y-57855000D01*
X34176000Y-57855000D01*
X34176000Y-57875000D01*
X34975250Y-57875000D01*
X35134000Y-57716250D01*
X35134000Y-57475690D01*
X35037327Y-57242301D01*
X34858698Y-57063673D01*
X34823306Y-57049013D01*
X34956809Y-56959809D01*
X35097157Y-56749765D01*
X35146440Y-56502000D01*
X35146440Y-55702000D01*
X35097157Y-55454235D01*
X34956809Y-55244191D01*
X34746765Y-55103843D01*
X34499000Y-55054560D01*
X33599000Y-55054560D01*
X33351235Y-55103843D01*
X33141191Y-55244191D01*
X33000843Y-55454235D01*
X32951560Y-55702000D01*
X32951560Y-56074639D01*
X32881996Y-56144202D01*
X32809000Y-56095427D01*
X32809000Y-55522001D01*
X33363802Y-54967200D01*
X41102153Y-54967200D01*
X41177000Y-54982088D01*
X41251847Y-54967200D01*
X41251852Y-54967200D01*
X41473537Y-54923104D01*
X41724929Y-54755129D01*
X41767331Y-54691670D01*
X42574000Y-53885001D01*
X43431470Y-54742472D01*
G04 #@! TD*
M02*
