G04 #@! TF.GenerationSoftware,KiCad,Pcbnew,(6.0.0-rc1-dev-1198-gf6cdcc1db)*
G04 #@! TF.CreationDate,2018-11-21T14:47:26-05:00*
G04 #@! TF.ProjectId,recurse-logo,72656375-7273-4652-9d6c-6f676f2e6b69,rev?*
G04 #@! TF.SameCoordinates,Original*
G04 #@! TF.FileFunction,Soldermask,Top*
G04 #@! TF.FilePolarity,Negative*
%FSLAX46Y46*%
G04 Gerber Fmt 4.6, Leading zero omitted, Abs format (unit mm)*
G04 Created by KiCad (PCBNEW (6.0.0-rc1-dev-1198-gf6cdcc1db)) date Wednesday, November 21, 2018 at 02:47:26 PM*
%MOMM*%
%LPD*%
G01*
G04 APERTURE LIST*
%ADD10C,0.100000*%
G04 APERTURE END LIST*
D10*
G36*
X52151000Y-40451000D02*
X50249000Y-40451000D01*
X50249000Y-38549000D01*
X52151000Y-38549000D01*
X52151000Y-40451000D01*
X52151000Y-40451000D01*
G37*
G36*
X48937396Y-38585546D02*
X49110466Y-38657234D01*
X49266230Y-38761312D01*
X49398688Y-38893770D01*
X49502766Y-39049534D01*
X49574454Y-39222604D01*
X49611000Y-39406333D01*
X49611000Y-39593667D01*
X49574454Y-39777396D01*
X49502766Y-39950466D01*
X49398688Y-40106230D01*
X49266230Y-40238688D01*
X49110466Y-40342766D01*
X48937396Y-40414454D01*
X48753667Y-40451000D01*
X48566333Y-40451000D01*
X48382604Y-40414454D01*
X48209534Y-40342766D01*
X48053770Y-40238688D01*
X47921312Y-40106230D01*
X47817234Y-39950466D01*
X47745546Y-39777396D01*
X47709000Y-39593667D01*
X47709000Y-39406333D01*
X47745546Y-39222604D01*
X47817234Y-39049534D01*
X47921312Y-38893770D01*
X48053770Y-38761312D01*
X48209534Y-38657234D01*
X48382604Y-38585546D01*
X48566333Y-38549000D01*
X48753667Y-38549000D01*
X48937396Y-38585546D01*
X48937396Y-38585546D01*
G37*
G36*
X46951000Y-40451000D02*
X45049000Y-40451000D01*
X45049000Y-38549000D01*
X46951000Y-38549000D01*
X46951000Y-40451000D01*
X46951000Y-40451000D01*
G37*
G36*
X43737396Y-38585546D02*
X43910466Y-38657234D01*
X44066230Y-38761312D01*
X44198688Y-38893770D01*
X44302766Y-39049534D01*
X44374454Y-39222604D01*
X44411000Y-39406333D01*
X44411000Y-39593667D01*
X44374454Y-39777396D01*
X44302766Y-39950466D01*
X44198688Y-40106230D01*
X44066230Y-40238688D01*
X43910466Y-40342766D01*
X43737396Y-40414454D01*
X43553667Y-40451000D01*
X43366333Y-40451000D01*
X43182604Y-40414454D01*
X43009534Y-40342766D01*
X42853770Y-40238688D01*
X42721312Y-40106230D01*
X42617234Y-39950466D01*
X42545546Y-39777396D01*
X42509000Y-39593667D01*
X42509000Y-39406333D01*
X42545546Y-39222604D01*
X42617234Y-39049534D01*
X42721312Y-38893770D01*
X42853770Y-38761312D01*
X43009534Y-38657234D01*
X43182604Y-38585546D01*
X43366333Y-38549000D01*
X43553667Y-38549000D01*
X43737396Y-38585546D01*
X43737396Y-38585546D01*
G37*
G36*
X36951000Y-40451000D02*
X35049000Y-40451000D01*
X35049000Y-38549000D01*
X36951000Y-38549000D01*
X36951000Y-40451000D01*
X36951000Y-40451000D01*
G37*
G36*
X33737396Y-38585546D02*
X33910466Y-38657234D01*
X34066230Y-38761312D01*
X34198688Y-38893770D01*
X34302766Y-39049534D01*
X34374454Y-39222604D01*
X34411000Y-39406333D01*
X34411000Y-39593667D01*
X34374454Y-39777396D01*
X34302766Y-39950466D01*
X34198688Y-40106230D01*
X34066230Y-40238688D01*
X33910466Y-40342766D01*
X33737396Y-40414454D01*
X33553667Y-40451000D01*
X33366333Y-40451000D01*
X33182604Y-40414454D01*
X33009534Y-40342766D01*
X32853770Y-40238688D01*
X32721312Y-40106230D01*
X32617234Y-39950466D01*
X32545546Y-39777396D01*
X32509000Y-39593667D01*
X32509000Y-39406333D01*
X32545546Y-39222604D01*
X32617234Y-39049534D01*
X32721312Y-38893770D01*
X32853770Y-38761312D01*
X33009534Y-38657234D01*
X33182604Y-38585546D01*
X33366333Y-38549000D01*
X33553667Y-38549000D01*
X33737396Y-38585546D01*
X33737396Y-38585546D01*
G37*
G36*
X31751000Y-40451000D02*
X29849000Y-40451000D01*
X29849000Y-38549000D01*
X31751000Y-38549000D01*
X31751000Y-40451000D01*
X31751000Y-40451000D01*
G37*
G36*
X28537396Y-38585546D02*
X28710466Y-38657234D01*
X28866230Y-38761312D01*
X28998688Y-38893770D01*
X29102766Y-39049534D01*
X29174454Y-39222604D01*
X29211000Y-39406333D01*
X29211000Y-39593667D01*
X29174454Y-39777396D01*
X29102766Y-39950466D01*
X28998688Y-40106230D01*
X28866230Y-40238688D01*
X28710466Y-40342766D01*
X28537396Y-40414454D01*
X28353667Y-40451000D01*
X28166333Y-40451000D01*
X27982604Y-40414454D01*
X27809534Y-40342766D01*
X27653770Y-40238688D01*
X27521312Y-40106230D01*
X27417234Y-39950466D01*
X27345546Y-39777396D01*
X27309000Y-39593667D01*
X27309000Y-39406333D01*
X27345546Y-39222604D01*
X27417234Y-39049534D01*
X27521312Y-38893770D01*
X27653770Y-38761312D01*
X27809534Y-38657234D01*
X27982604Y-38585546D01*
X28166333Y-38549000D01*
X28353667Y-38549000D01*
X28537396Y-38585546D01*
X28537396Y-38585546D01*
G37*
G36*
X46951000Y-30451000D02*
X45049000Y-30451000D01*
X45049000Y-28549000D01*
X46951000Y-28549000D01*
X46951000Y-30451000D01*
X46951000Y-30451000D01*
G37*
G36*
X43737396Y-28585546D02*
X43910466Y-28657234D01*
X44066230Y-28761312D01*
X44198688Y-28893770D01*
X44302766Y-29049534D01*
X44374454Y-29222604D01*
X44411000Y-29406333D01*
X44411000Y-29593667D01*
X44374454Y-29777396D01*
X44302766Y-29950466D01*
X44198688Y-30106230D01*
X44066230Y-30238688D01*
X43910466Y-30342766D01*
X43737396Y-30414454D01*
X43553667Y-30451000D01*
X43366333Y-30451000D01*
X43182604Y-30414454D01*
X43009534Y-30342766D01*
X42853770Y-30238688D01*
X42721312Y-30106230D01*
X42617234Y-29950466D01*
X42545546Y-29777396D01*
X42509000Y-29593667D01*
X42509000Y-29406333D01*
X42545546Y-29222604D01*
X42617234Y-29049534D01*
X42721312Y-28893770D01*
X42853770Y-28761312D01*
X43009534Y-28657234D01*
X43182604Y-28585546D01*
X43366333Y-28549000D01*
X43553667Y-28549000D01*
X43737396Y-28585546D01*
X43737396Y-28585546D01*
G37*
G36*
X36951000Y-30451000D02*
X35049000Y-30451000D01*
X35049000Y-28549000D01*
X36951000Y-28549000D01*
X36951000Y-30451000D01*
X36951000Y-30451000D01*
G37*
G36*
X33737396Y-28585546D02*
X33910466Y-28657234D01*
X34066230Y-28761312D01*
X34198688Y-28893770D01*
X34302766Y-29049534D01*
X34374454Y-29222604D01*
X34411000Y-29406333D01*
X34411000Y-29593667D01*
X34374454Y-29777396D01*
X34302766Y-29950466D01*
X34198688Y-30106230D01*
X34066230Y-30238688D01*
X33910466Y-30342766D01*
X33737396Y-30414454D01*
X33553667Y-30451000D01*
X33366333Y-30451000D01*
X33182604Y-30414454D01*
X33009534Y-30342766D01*
X32853770Y-30238688D01*
X32721312Y-30106230D01*
X32617234Y-29950466D01*
X32545546Y-29777396D01*
X32509000Y-29593667D01*
X32509000Y-29406333D01*
X32545546Y-29222604D01*
X32617234Y-29049534D01*
X32721312Y-28893770D01*
X32853770Y-28761312D01*
X33009534Y-28657234D01*
X33182604Y-28585546D01*
X33366333Y-28549000D01*
X33553667Y-28549000D01*
X33737396Y-28585546D01*
X33737396Y-28585546D01*
G37*
G36*
X26951000Y-30451000D02*
X25049000Y-30451000D01*
X25049000Y-28549000D01*
X26951000Y-28549000D01*
X26951000Y-30451000D01*
X26951000Y-30451000D01*
G37*
G36*
X23737396Y-28585546D02*
X23910466Y-28657234D01*
X24066230Y-28761312D01*
X24198688Y-28893770D01*
X24302766Y-29049534D01*
X24374454Y-29222604D01*
X24411000Y-29406333D01*
X24411000Y-29593667D01*
X24374454Y-29777396D01*
X24302766Y-29950466D01*
X24198688Y-30106230D01*
X24066230Y-30238688D01*
X23910466Y-30342766D01*
X23737396Y-30414454D01*
X23553667Y-30451000D01*
X23366333Y-30451000D01*
X23182604Y-30414454D01*
X23009534Y-30342766D01*
X22853770Y-30238688D01*
X22721312Y-30106230D01*
X22617234Y-29950466D01*
X22545546Y-29777396D01*
X22509000Y-29593667D01*
X22509000Y-29406333D01*
X22545546Y-29222604D01*
X22617234Y-29049534D01*
X22721312Y-28893770D01*
X22853770Y-28761312D01*
X23009534Y-28657234D01*
X23182604Y-28585546D01*
X23366333Y-28549000D01*
X23553667Y-28549000D01*
X23737396Y-28585546D01*
X23737396Y-28585546D01*
G37*
M02*
