G04 #@! TF.GenerationSoftware,KiCad,Pcbnew,(6.0.0-rc1-dev-1198-gf6cdcc1db)*
G04 #@! TF.CreationDate,2018-11-21T14:47:26-05:00*
G04 #@! TF.ProjectId,recurse-logo,72656375-7273-4652-9d6c-6f676f2e6b69,rev?*
G04 #@! TF.SameCoordinates,Original*
G04 #@! TF.FileFunction,Legend,Bot*
G04 #@! TF.FilePolarity,Positive*
%FSLAX46Y46*%
G04 Gerber Fmt 4.6, Leading zero omitted, Abs format (unit mm)*
G04 Created by KiCad (PCBNEW (6.0.0-rc1-dev-1198-gf6cdcc1db)) date Wednesday, November 21, 2018 at 02:47:26 PM*
%MOMM*%
%LPD*%
G01*
G04 APERTURE LIST*
%ADD10C,0.100000*%
%ADD11C,0.120000*%
%ADD12C,0.150000*%
G04 APERTURE END LIST*
D10*
G04 #@! TO.C,BT1*
X39597000Y-67774000D02*
X38247000Y-68924000D01*
X39597000Y-80874000D02*
X38247000Y-79724000D01*
X46847000Y-79224000D02*
X46847000Y-77324000D01*
X46847000Y-69424000D02*
X46847000Y-71324000D01*
X46847000Y-69424000D02*
X45197000Y-67774000D01*
X45197000Y-80874000D02*
X46847000Y-79224000D01*
X37750542Y-71822306D02*
G75*
G02X38247000Y-68924000I2296458J1098306D01*
G01*
X37749393Y-76828098D02*
G75*
G03X38247000Y-79724000I2297607J-1095902D01*
G01*
D11*
G04 #@! TO.C,C1*
X66431000Y-57668000D02*
X64081000Y-57668000D01*
X59611000Y-57668000D02*
X61961000Y-57668000D01*
X59611000Y-51912437D02*
X59611000Y-57668000D01*
X66431000Y-51912437D02*
X66431000Y-57668000D01*
X65366563Y-50848000D02*
X64081000Y-50848000D01*
X60675437Y-50848000D02*
X61961000Y-50848000D01*
X60675437Y-50848000D02*
X59611000Y-51912437D01*
X65366563Y-50848000D02*
X66431000Y-51912437D01*
X61173500Y-49820500D02*
X61173500Y-50608000D01*
X60779750Y-50214250D02*
X61567250Y-50214250D01*
G04 #@! TO.C,C2*
X25029000Y-57668000D02*
X22679000Y-57668000D01*
X18209000Y-57668000D02*
X20559000Y-57668000D01*
X18209000Y-51912437D02*
X18209000Y-57668000D01*
X25029000Y-51912437D02*
X25029000Y-57668000D01*
X23964563Y-50848000D02*
X22679000Y-50848000D01*
X19273437Y-50848000D02*
X20559000Y-50848000D01*
X19273437Y-50848000D02*
X18209000Y-51912437D01*
X23964563Y-50848000D02*
X25029000Y-51912437D01*
X19771500Y-49820500D02*
X19771500Y-50608000D01*
X19377750Y-50214250D02*
X20165250Y-50214250D01*
G04 #@! TO.C,Q2*
X32289000Y-58632000D02*
X32289000Y-57702000D01*
X32289000Y-55472000D02*
X32289000Y-56402000D01*
X32289000Y-55472000D02*
X34449000Y-55472000D01*
X32289000Y-58632000D02*
X33749000Y-58632000D01*
G04 #@! TO.C,Q1*
X51081000Y-55472000D02*
X49621000Y-55472000D01*
X51081000Y-58632000D02*
X48921000Y-58632000D01*
X51081000Y-58632000D02*
X51081000Y-57702000D01*
X51081000Y-55472000D02*
X51081000Y-56402000D01*
G04 #@! TO.C,R1*
X59402064Y-30860000D02*
X56597936Y-30860000D01*
X59402064Y-28140000D02*
X56597936Y-28140000D01*
G04 #@! TO.C,R2*
X44135000Y-48283936D02*
X44135000Y-51088064D01*
X46855000Y-48283936D02*
X46855000Y-51088064D01*
G04 #@! TO.C,R3*
X30800000Y-50961064D02*
X30800000Y-48156936D01*
X33520000Y-50961064D02*
X33520000Y-48156936D01*
G04 #@! TO.C,R4*
X50612000Y-48283936D02*
X50612000Y-51088064D01*
X53332000Y-48283936D02*
X53332000Y-51088064D01*
G04 #@! TO.C,R5*
X37785000Y-51088064D02*
X37785000Y-48283936D01*
X40505000Y-51088064D02*
X40505000Y-48283936D01*
G04 #@! TO.C,R6*
X55395936Y-40886000D02*
X58200064Y-40886000D01*
X55395936Y-38166000D02*
X58200064Y-38166000D01*
G04 #@! TO.C,BT1*
D12*
X36375571Y-73538285D02*
X36423190Y-73681142D01*
X36470809Y-73728761D01*
X36566047Y-73776380D01*
X36708904Y-73776380D01*
X36804142Y-73728761D01*
X36851761Y-73681142D01*
X36899380Y-73585904D01*
X36899380Y-73204952D01*
X35899380Y-73204952D01*
X35899380Y-73538285D01*
X35947000Y-73633523D01*
X35994619Y-73681142D01*
X36089857Y-73728761D01*
X36185095Y-73728761D01*
X36280333Y-73681142D01*
X36327952Y-73633523D01*
X36375571Y-73538285D01*
X36375571Y-73204952D01*
X35899380Y-74062095D02*
X35899380Y-74633523D01*
X36899380Y-74347809D02*
X35899380Y-74347809D01*
X36899380Y-75490666D02*
X36899380Y-74919238D01*
X36899380Y-75204952D02*
X35899380Y-75204952D01*
X36042238Y-75109714D01*
X36137476Y-75014476D01*
X36185095Y-74919238D01*
G04 #@! TO.C,C1*
X59028142Y-54091333D02*
X59075761Y-54043714D01*
X59123380Y-53900857D01*
X59123380Y-53805619D01*
X59075761Y-53662761D01*
X58980523Y-53567523D01*
X58885285Y-53519904D01*
X58694809Y-53472285D01*
X58551952Y-53472285D01*
X58361476Y-53519904D01*
X58266238Y-53567523D01*
X58171000Y-53662761D01*
X58123380Y-53805619D01*
X58123380Y-53900857D01*
X58171000Y-54043714D01*
X58218619Y-54091333D01*
X59123380Y-55043714D02*
X59123380Y-54472285D01*
X59123380Y-54758000D02*
X58123380Y-54758000D01*
X58266238Y-54662761D01*
X58361476Y-54567523D01*
X58409095Y-54472285D01*
G04 #@! TO.C,C2*
X17626142Y-54091333D02*
X17673761Y-54043714D01*
X17721380Y-53900857D01*
X17721380Y-53805619D01*
X17673761Y-53662761D01*
X17578523Y-53567523D01*
X17483285Y-53519904D01*
X17292809Y-53472285D01*
X17149952Y-53472285D01*
X16959476Y-53519904D01*
X16864238Y-53567523D01*
X16769000Y-53662761D01*
X16721380Y-53805619D01*
X16721380Y-53900857D01*
X16769000Y-54043714D01*
X16816619Y-54091333D01*
X16816619Y-54472285D02*
X16769000Y-54519904D01*
X16721380Y-54615142D01*
X16721380Y-54853238D01*
X16769000Y-54948476D01*
X16816619Y-54996095D01*
X16911857Y-55043714D01*
X17007095Y-55043714D01*
X17149952Y-54996095D01*
X17721380Y-54424666D01*
X17721380Y-55043714D01*
G04 #@! TO.C,Q2*
X33144238Y-55099619D02*
X33239476Y-55052000D01*
X33334714Y-54956761D01*
X33477571Y-54813904D01*
X33572809Y-54766285D01*
X33668047Y-54766285D01*
X33620428Y-55004380D02*
X33715666Y-54956761D01*
X33810904Y-54861523D01*
X33858523Y-54671047D01*
X33858523Y-54337714D01*
X33810904Y-54147238D01*
X33715666Y-54052000D01*
X33620428Y-54004380D01*
X33429952Y-54004380D01*
X33334714Y-54052000D01*
X33239476Y-54147238D01*
X33191857Y-54337714D01*
X33191857Y-54671047D01*
X33239476Y-54861523D01*
X33334714Y-54956761D01*
X33429952Y-55004380D01*
X33620428Y-55004380D01*
X32810904Y-54099619D02*
X32763285Y-54052000D01*
X32668047Y-54004380D01*
X32429952Y-54004380D01*
X32334714Y-54052000D01*
X32287095Y-54099619D01*
X32239476Y-54194857D01*
X32239476Y-54290095D01*
X32287095Y-54432952D01*
X32858523Y-55004380D01*
X32239476Y-55004380D01*
G04 #@! TO.C,Q1*
X50416238Y-60099619D02*
X50511476Y-60052000D01*
X50606714Y-59956761D01*
X50749571Y-59813904D01*
X50844809Y-59766285D01*
X50940047Y-59766285D01*
X50892428Y-60004380D02*
X50987666Y-59956761D01*
X51082904Y-59861523D01*
X51130523Y-59671047D01*
X51130523Y-59337714D01*
X51082904Y-59147238D01*
X50987666Y-59052000D01*
X50892428Y-59004380D01*
X50701952Y-59004380D01*
X50606714Y-59052000D01*
X50511476Y-59147238D01*
X50463857Y-59337714D01*
X50463857Y-59671047D01*
X50511476Y-59861523D01*
X50606714Y-59956761D01*
X50701952Y-60004380D01*
X50892428Y-60004380D01*
X49511476Y-60004380D02*
X50082904Y-60004380D01*
X49797190Y-60004380D02*
X49797190Y-59004380D01*
X49892428Y-59147238D01*
X49987666Y-59242476D01*
X50082904Y-59290095D01*
G04 #@! TO.C,R1*
X58166666Y-27672380D02*
X58500000Y-27196190D01*
X58738095Y-27672380D02*
X58738095Y-26672380D01*
X58357142Y-26672380D01*
X58261904Y-26720000D01*
X58214285Y-26767619D01*
X58166666Y-26862857D01*
X58166666Y-27005714D01*
X58214285Y-27100952D01*
X58261904Y-27148571D01*
X58357142Y-27196190D01*
X58738095Y-27196190D01*
X57214285Y-27672380D02*
X57785714Y-27672380D01*
X57500000Y-27672380D02*
X57500000Y-26672380D01*
X57595238Y-26815238D01*
X57690476Y-26910476D01*
X57785714Y-26958095D01*
G04 #@! TO.C,R2*
X43667380Y-49519333D02*
X43191190Y-49186000D01*
X43667380Y-48947904D02*
X42667380Y-48947904D01*
X42667380Y-49328857D01*
X42715000Y-49424095D01*
X42762619Y-49471714D01*
X42857857Y-49519333D01*
X43000714Y-49519333D01*
X43095952Y-49471714D01*
X43143571Y-49424095D01*
X43191190Y-49328857D01*
X43191190Y-48947904D01*
X42762619Y-49900285D02*
X42715000Y-49947904D01*
X42667380Y-50043142D01*
X42667380Y-50281238D01*
X42715000Y-50376476D01*
X42762619Y-50424095D01*
X42857857Y-50471714D01*
X42953095Y-50471714D01*
X43095952Y-50424095D01*
X43667380Y-49852666D01*
X43667380Y-50471714D01*
G04 #@! TO.C,R3*
X34892380Y-49392333D02*
X34416190Y-49059000D01*
X34892380Y-48820904D02*
X33892380Y-48820904D01*
X33892380Y-49201857D01*
X33940000Y-49297095D01*
X33987619Y-49344714D01*
X34082857Y-49392333D01*
X34225714Y-49392333D01*
X34320952Y-49344714D01*
X34368571Y-49297095D01*
X34416190Y-49201857D01*
X34416190Y-48820904D01*
X33892380Y-49725666D02*
X33892380Y-50344714D01*
X34273333Y-50011380D01*
X34273333Y-50154238D01*
X34320952Y-50249476D01*
X34368571Y-50297095D01*
X34463809Y-50344714D01*
X34701904Y-50344714D01*
X34797142Y-50297095D01*
X34844761Y-50249476D01*
X34892380Y-50154238D01*
X34892380Y-49868523D01*
X34844761Y-49773285D01*
X34797142Y-49725666D01*
G04 #@! TO.C,R4*
X50144380Y-49519333D02*
X49668190Y-49186000D01*
X50144380Y-48947904D02*
X49144380Y-48947904D01*
X49144380Y-49328857D01*
X49192000Y-49424095D01*
X49239619Y-49471714D01*
X49334857Y-49519333D01*
X49477714Y-49519333D01*
X49572952Y-49471714D01*
X49620571Y-49424095D01*
X49668190Y-49328857D01*
X49668190Y-48947904D01*
X49477714Y-50376476D02*
X50144380Y-50376476D01*
X49096761Y-50138380D02*
X49811047Y-49900285D01*
X49811047Y-50519333D01*
G04 #@! TO.C,R5*
X41877380Y-49519333D02*
X41401190Y-49186000D01*
X41877380Y-48947904D02*
X40877380Y-48947904D01*
X40877380Y-49328857D01*
X40925000Y-49424095D01*
X40972619Y-49471714D01*
X41067857Y-49519333D01*
X41210714Y-49519333D01*
X41305952Y-49471714D01*
X41353571Y-49424095D01*
X41401190Y-49328857D01*
X41401190Y-48947904D01*
X40877380Y-50424095D02*
X40877380Y-49947904D01*
X41353571Y-49900285D01*
X41305952Y-49947904D01*
X41258333Y-50043142D01*
X41258333Y-50281238D01*
X41305952Y-50376476D01*
X41353571Y-50424095D01*
X41448809Y-50471714D01*
X41686904Y-50471714D01*
X41782142Y-50424095D01*
X41829761Y-50376476D01*
X41877380Y-50281238D01*
X41877380Y-50043142D01*
X41829761Y-49947904D01*
X41782142Y-49900285D01*
G04 #@! TO.C,R6*
X56964666Y-42258380D02*
X57298000Y-41782190D01*
X57536095Y-42258380D02*
X57536095Y-41258380D01*
X57155142Y-41258380D01*
X57059904Y-41306000D01*
X57012285Y-41353619D01*
X56964666Y-41448857D01*
X56964666Y-41591714D01*
X57012285Y-41686952D01*
X57059904Y-41734571D01*
X57155142Y-41782190D01*
X57536095Y-41782190D01*
X56107523Y-41258380D02*
X56298000Y-41258380D01*
X56393238Y-41306000D01*
X56440857Y-41353619D01*
X56536095Y-41496476D01*
X56583714Y-41686952D01*
X56583714Y-42067904D01*
X56536095Y-42163142D01*
X56488476Y-42210761D01*
X56393238Y-42258380D01*
X56202761Y-42258380D01*
X56107523Y-42210761D01*
X56059904Y-42163142D01*
X56012285Y-42067904D01*
X56012285Y-41829809D01*
X56059904Y-41734571D01*
X56107523Y-41686952D01*
X56202761Y-41639333D01*
X56393238Y-41639333D01*
X56488476Y-41686952D01*
X56536095Y-41734571D01*
X56583714Y-41829809D01*
G04 #@! TD*
M02*
