G04 #@! TF.GenerationSoftware,KiCad,Pcbnew,(6.0.0-rc1-dev-1198-gf6cdcc1db)*
G04 #@! TF.CreationDate,2018-11-21T14:47:26-05:00*
G04 #@! TF.ProjectId,recurse-logo,72656375-7273-4652-9d6c-6f676f2e6b69,rev?*
G04 #@! TF.SameCoordinates,Original*
G04 #@! TF.FileFunction,Legend,Top*
G04 #@! TF.FilePolarity,Positive*
%FSLAX46Y46*%
G04 Gerber Fmt 4.6, Leading zero omitted, Abs format (unit mm)*
G04 Created by KiCad (PCBNEW (6.0.0-rc1-dev-1198-gf6cdcc1db)) date Wednesday, November 21, 2018 at 02:47:26 PM*
%MOMM*%
%LPD*%
G01*
G04 APERTURE LIST*
%ADD10C,0.150000*%
%ADD11C,0.120000*%
G04 APERTURE END LIST*
D10*
G36*
X57000000Y-77000000D02*
X57000000Y-72000000D01*
X62000000Y-72000000D01*
X62000000Y-77000000D01*
X57000000Y-77000000D01*
G37*
X57000000Y-77000000D02*
X57000000Y-72000000D01*
X62000000Y-72000000D01*
X62000000Y-77000000D01*
X57000000Y-77000000D01*
G36*
X52000000Y-77000000D02*
X52000000Y-82000000D01*
X57000000Y-82000000D01*
X57000000Y-77000000D01*
X52000000Y-77000000D01*
G37*
X52000000Y-77000000D02*
X52000000Y-82000000D01*
X57000000Y-82000000D01*
X57000000Y-77000000D01*
X52000000Y-77000000D01*
G36*
X47000000Y-77000000D02*
X47000000Y-72000000D01*
X52000000Y-72000000D01*
X52000000Y-77000000D01*
X47000000Y-77000000D01*
G37*
X47000000Y-77000000D02*
X47000000Y-72000000D01*
X52000000Y-72000000D01*
X52000000Y-77000000D01*
X47000000Y-77000000D01*
G36*
X42000000Y-77000000D02*
X42000000Y-82000000D01*
X47000000Y-82000000D01*
X47000000Y-77000000D01*
X42000000Y-77000000D01*
G37*
X42000000Y-77000000D02*
X42000000Y-82000000D01*
X47000000Y-82000000D01*
X47000000Y-77000000D01*
X42000000Y-77000000D01*
G36*
X37000000Y-77000000D02*
X37000000Y-72000000D01*
X42000000Y-72000000D01*
X42000000Y-77000000D01*
X37000000Y-77000000D01*
G37*
X37000000Y-77000000D02*
X37000000Y-72000000D01*
X42000000Y-72000000D01*
X42000000Y-77000000D01*
X37000000Y-77000000D01*
G36*
X32000000Y-77000000D02*
X32000000Y-82000000D01*
X37000000Y-82000000D01*
X37000000Y-77000000D01*
X32000000Y-77000000D01*
G37*
X32000000Y-77000000D02*
X32000000Y-82000000D01*
X37000000Y-82000000D01*
X37000000Y-77000000D01*
X32000000Y-77000000D01*
G36*
X27000000Y-77000000D02*
X27000000Y-72000000D01*
X32000000Y-72000000D01*
X32000000Y-77000000D01*
X27000000Y-77000000D01*
G37*
X27000000Y-77000000D02*
X27000000Y-72000000D01*
X32000000Y-72000000D01*
X32000000Y-77000000D01*
X27000000Y-77000000D01*
G36*
X22000000Y-82000000D02*
X22000000Y-77000000D01*
X27000000Y-77000000D01*
X27000000Y-82000000D01*
X22000000Y-82000000D01*
G37*
X22000000Y-82000000D02*
X22000000Y-77000000D01*
X27000000Y-77000000D01*
X27000000Y-82000000D01*
X22000000Y-82000000D01*
G36*
X17000000Y-57000000D02*
X17000000Y-17000000D01*
X22000000Y-17000000D01*
X22000000Y-57000000D01*
X17000000Y-57000000D01*
G37*
X17000000Y-57000000D02*
X17000000Y-17000000D01*
X22000000Y-17000000D01*
X22000000Y-57000000D01*
X17000000Y-57000000D01*
G36*
X67000000Y-57000000D02*
X67000000Y-52000000D01*
X17000000Y-52000000D01*
X17000000Y-57000000D01*
X67000000Y-57000000D01*
G37*
X67000000Y-57000000D02*
X67000000Y-52000000D01*
X17000000Y-52000000D01*
X17000000Y-57000000D01*
X67000000Y-57000000D01*
G36*
X62000000Y-17000000D02*
X67000000Y-17000000D01*
X67000000Y-57000000D01*
X62000000Y-57000000D01*
X62000000Y-17000000D01*
G37*
X62000000Y-17000000D02*
X67000000Y-17000000D01*
X67000000Y-57000000D01*
X62000000Y-57000000D01*
X62000000Y-17000000D01*
G36*
X17000000Y-17000000D02*
X67000000Y-17000000D01*
X67000000Y-22000000D01*
X17000000Y-22000000D01*
X17000000Y-17000000D01*
G37*
X17000000Y-17000000D02*
X67000000Y-17000000D01*
X67000000Y-22000000D01*
X17000000Y-22000000D01*
X17000000Y-17000000D01*
D11*
G04 #@! TO.C,D6*
X47051000Y-38420000D02*
X47051000Y-36940000D01*
X47051000Y-42060000D02*
X47051000Y-40580000D01*
X47170000Y-42060000D02*
X47170000Y-36940000D01*
X42170000Y-42060000D02*
X42170000Y-36940000D01*
X47290000Y-42060000D02*
X47290000Y-36940000D01*
X47290000Y-36940000D02*
X42170000Y-36940000D01*
X47290000Y-42060000D02*
X42170000Y-42060000D01*
G04 #@! TO.C,D1*
X27051000Y-28420000D02*
X27051000Y-26940000D01*
X27051000Y-32060000D02*
X27051000Y-30580000D01*
X27170000Y-32060000D02*
X27170000Y-26940000D01*
X22170000Y-32060000D02*
X22170000Y-26940000D01*
X27290000Y-32060000D02*
X27290000Y-26940000D01*
X27290000Y-26940000D02*
X22170000Y-26940000D01*
X27290000Y-32060000D02*
X22170000Y-32060000D01*
G04 #@! TO.C,D2*
X37051000Y-28420000D02*
X37051000Y-26940000D01*
X37051000Y-32060000D02*
X37051000Y-30580000D01*
X37170000Y-32060000D02*
X37170000Y-26940000D01*
X32170000Y-32060000D02*
X32170000Y-26940000D01*
X37290000Y-32060000D02*
X37290000Y-26940000D01*
X37290000Y-26940000D02*
X32170000Y-26940000D01*
X37290000Y-32060000D02*
X32170000Y-32060000D01*
G04 #@! TO.C,D3*
X47290000Y-32060000D02*
X42170000Y-32060000D01*
X47290000Y-26940000D02*
X42170000Y-26940000D01*
X47290000Y-32060000D02*
X47290000Y-26940000D01*
X42170000Y-32060000D02*
X42170000Y-26940000D01*
X47170000Y-32060000D02*
X47170000Y-26940000D01*
X47051000Y-32060000D02*
X47051000Y-30580000D01*
X47051000Y-28420000D02*
X47051000Y-26940000D01*
G04 #@! TO.C,D4*
X32090000Y-42060000D02*
X26970000Y-42060000D01*
X32090000Y-36940000D02*
X26970000Y-36940000D01*
X32090000Y-42060000D02*
X32090000Y-36940000D01*
X26970000Y-42060000D02*
X26970000Y-36940000D01*
X31970000Y-42060000D02*
X31970000Y-36940000D01*
X31851000Y-42060000D02*
X31851000Y-40580000D01*
X31851000Y-38420000D02*
X31851000Y-36940000D01*
G04 #@! TO.C,D5*
X37290000Y-42060000D02*
X32170000Y-42060000D01*
X37290000Y-36940000D02*
X32170000Y-36940000D01*
X37290000Y-42060000D02*
X37290000Y-36940000D01*
X32170000Y-42060000D02*
X32170000Y-36940000D01*
X37170000Y-42060000D02*
X37170000Y-36940000D01*
X37051000Y-42060000D02*
X37051000Y-40580000D01*
X37051000Y-38420000D02*
X37051000Y-36940000D01*
G04 #@! TO.C,D7*
X52490000Y-42060000D02*
X47370000Y-42060000D01*
X52490000Y-36940000D02*
X47370000Y-36940000D01*
X52490000Y-42060000D02*
X52490000Y-36940000D01*
X47370000Y-42060000D02*
X47370000Y-36940000D01*
X52370000Y-42060000D02*
X52370000Y-36940000D01*
X52251000Y-42060000D02*
X52251000Y-40580000D01*
X52251000Y-38420000D02*
X52251000Y-36940000D01*
G04 #@! TD*
M02*
