G04 #@! TF.GenerationSoftware,KiCad,Pcbnew,(6.0.0-rc1-dev-1198-gf6cdcc1db)*
G04 #@! TF.CreationDate,2018-11-21T14:47:26-05:00*
G04 #@! TF.ProjectId,recurse-logo,72656375-7273-4652-9d6c-6f676f2e6b69,rev?*
G04 #@! TF.SameCoordinates,Original*
G04 #@! TF.FileFunction,Soldermask,Bot*
G04 #@! TF.FilePolarity,Negative*
%FSLAX46Y46*%
G04 Gerber Fmt 4.6, Leading zero omitted, Abs format (unit mm)*
G04 Created by KiCad (PCBNEW (6.0.0-rc1-dev-1198-gf6cdcc1db)) date Wednesday, November 21, 2018 at 02:47:26 PM*
%MOMM*%
%LPD*%
G01*
G04 APERTURE LIST*
%ADD10C,0.100000*%
G04 APERTURE END LIST*
D10*
G36*
X45048000Y-83225000D02*
X39846000Y-83225000D01*
X39846000Y-80623000D01*
X45048000Y-80623000D01*
X45048000Y-83225000D01*
X45048000Y-83225000D01*
G37*
G36*
X43949490Y-69370950D02*
X44498620Y-69598407D01*
X44886913Y-69759243D01*
X45724887Y-70319159D01*
X45730574Y-70322959D01*
X46448041Y-71040426D01*
X46448043Y-71040429D01*
X47011757Y-71884087D01*
X47011757Y-71884088D01*
X47400050Y-72821510D01*
X47598000Y-73816669D01*
X47598000Y-74831331D01*
X47400050Y-75826490D01*
X47172593Y-76375620D01*
X47011757Y-76763913D01*
X46451841Y-77601887D01*
X46448041Y-77607574D01*
X45730574Y-78325041D01*
X45730571Y-78325043D01*
X44886913Y-78888757D01*
X44498620Y-79049593D01*
X43949490Y-79277050D01*
X42954331Y-79475000D01*
X41939669Y-79475000D01*
X40944510Y-79277050D01*
X40395380Y-79049593D01*
X40007087Y-78888757D01*
X39163429Y-78325043D01*
X39163426Y-78325041D01*
X38445959Y-77607574D01*
X38442159Y-77601887D01*
X37882243Y-76763913D01*
X37721407Y-76375620D01*
X37493950Y-75826490D01*
X37296000Y-74831331D01*
X37296000Y-73816669D01*
X37493950Y-72821510D01*
X37882243Y-71884088D01*
X37882243Y-71884087D01*
X38445957Y-71040429D01*
X38445959Y-71040426D01*
X39163426Y-70322959D01*
X39169113Y-70319159D01*
X40007087Y-69759243D01*
X40395380Y-69598407D01*
X40944510Y-69370950D01*
X41939669Y-69173000D01*
X42954331Y-69173000D01*
X43949490Y-69370950D01*
X43949490Y-69370950D01*
G37*
G36*
X45048000Y-68025000D02*
X39846000Y-68025000D01*
X39846000Y-65423000D01*
X45048000Y-65423000D01*
X45048000Y-68025000D01*
X45048000Y-68025000D01*
G37*
G36*
X63872000Y-58759000D02*
X62170000Y-58759000D01*
X62170000Y-55157000D01*
X63872000Y-55157000D01*
X63872000Y-58759000D01*
X63872000Y-58759000D01*
G37*
G36*
X22470000Y-58759000D02*
X20768000Y-58759000D01*
X20768000Y-55157000D01*
X22470000Y-55157000D01*
X22470000Y-58759000D01*
X22470000Y-58759000D01*
G37*
G36*
X49822000Y-58453000D02*
X48820000Y-58453000D01*
X48820000Y-57551000D01*
X49822000Y-57551000D01*
X49822000Y-58453000D01*
X49822000Y-58453000D01*
G37*
G36*
X34550000Y-58453000D02*
X33548000Y-58453000D01*
X33548000Y-57551000D01*
X34550000Y-57551000D01*
X34550000Y-58453000D01*
X34550000Y-58453000D01*
G37*
G36*
X51822000Y-57503000D02*
X50820000Y-57503000D01*
X50820000Y-56601000D01*
X51822000Y-56601000D01*
X51822000Y-57503000D01*
X51822000Y-57503000D01*
G37*
G36*
X32550000Y-57503000D02*
X31548000Y-57503000D01*
X31548000Y-56601000D01*
X32550000Y-56601000D01*
X32550000Y-57503000D01*
X32550000Y-57503000D01*
G37*
G36*
X49822000Y-56553000D02*
X48820000Y-56553000D01*
X48820000Y-55651000D01*
X49822000Y-55651000D01*
X49822000Y-56553000D01*
X49822000Y-56553000D01*
G37*
G36*
X34550000Y-56553000D02*
X33548000Y-56553000D01*
X33548000Y-55651000D01*
X34550000Y-55651000D01*
X34550000Y-56553000D01*
X34550000Y-56553000D01*
G37*
G36*
X63872000Y-53359000D02*
X62170000Y-53359000D01*
X62170000Y-49757000D01*
X63872000Y-49757000D01*
X63872000Y-53359000D01*
X63872000Y-53359000D01*
G37*
G36*
X22470000Y-53359000D02*
X20768000Y-53359000D01*
X20768000Y-49757000D01*
X22470000Y-49757000D01*
X22470000Y-53359000D01*
X22470000Y-53359000D01*
G37*
G36*
X53200821Y-51214103D02*
X53234982Y-51224466D01*
X53266464Y-51241293D01*
X53294060Y-51263940D01*
X53316707Y-51291536D01*
X53333534Y-51323018D01*
X53343897Y-51357179D01*
X53348000Y-51398842D01*
X53348000Y-52648158D01*
X53343897Y-52689821D01*
X53333534Y-52723982D01*
X53316707Y-52755464D01*
X53294060Y-52783060D01*
X53266464Y-52805707D01*
X53234982Y-52822534D01*
X53200821Y-52832897D01*
X53159158Y-52837000D01*
X50784842Y-52837000D01*
X50743179Y-52832897D01*
X50709018Y-52822534D01*
X50677536Y-52805707D01*
X50649940Y-52783060D01*
X50627293Y-52755464D01*
X50610466Y-52723982D01*
X50600103Y-52689821D01*
X50596000Y-52648158D01*
X50596000Y-51398842D01*
X50600103Y-51357179D01*
X50610466Y-51323018D01*
X50627293Y-51291536D01*
X50649940Y-51263940D01*
X50677536Y-51241293D01*
X50709018Y-51224466D01*
X50743179Y-51214103D01*
X50784842Y-51210000D01*
X53159158Y-51210000D01*
X53200821Y-51214103D01*
X53200821Y-51214103D01*
G37*
G36*
X46723821Y-51214103D02*
X46757982Y-51224466D01*
X46789464Y-51241293D01*
X46817060Y-51263940D01*
X46839707Y-51291536D01*
X46856534Y-51323018D01*
X46866897Y-51357179D01*
X46871000Y-51398842D01*
X46871000Y-52648158D01*
X46866897Y-52689821D01*
X46856534Y-52723982D01*
X46839707Y-52755464D01*
X46817060Y-52783060D01*
X46789464Y-52805707D01*
X46757982Y-52822534D01*
X46723821Y-52832897D01*
X46682158Y-52837000D01*
X44307842Y-52837000D01*
X44266179Y-52832897D01*
X44232018Y-52822534D01*
X44200536Y-52805707D01*
X44172940Y-52783060D01*
X44150293Y-52755464D01*
X44133466Y-52723982D01*
X44123103Y-52689821D01*
X44119000Y-52648158D01*
X44119000Y-51398842D01*
X44123103Y-51357179D01*
X44133466Y-51323018D01*
X44150293Y-51291536D01*
X44172940Y-51263940D01*
X44200536Y-51241293D01*
X44232018Y-51224466D01*
X44266179Y-51214103D01*
X44307842Y-51210000D01*
X46682158Y-51210000D01*
X46723821Y-51214103D01*
X46723821Y-51214103D01*
G37*
G36*
X40373821Y-51214103D02*
X40407982Y-51224466D01*
X40439464Y-51241293D01*
X40467060Y-51263940D01*
X40489707Y-51291536D01*
X40506534Y-51323018D01*
X40516897Y-51357179D01*
X40521000Y-51398842D01*
X40521000Y-52648158D01*
X40516897Y-52689821D01*
X40506534Y-52723982D01*
X40489707Y-52755464D01*
X40467060Y-52783060D01*
X40439464Y-52805707D01*
X40407982Y-52822534D01*
X40373821Y-52832897D01*
X40332158Y-52837000D01*
X37957842Y-52837000D01*
X37916179Y-52832897D01*
X37882018Y-52822534D01*
X37850536Y-52805707D01*
X37822940Y-52783060D01*
X37800293Y-52755464D01*
X37783466Y-52723982D01*
X37773103Y-52689821D01*
X37769000Y-52648158D01*
X37769000Y-51398842D01*
X37773103Y-51357179D01*
X37783466Y-51323018D01*
X37800293Y-51291536D01*
X37822940Y-51263940D01*
X37850536Y-51241293D01*
X37882018Y-51224466D01*
X37916179Y-51214103D01*
X37957842Y-51210000D01*
X40332158Y-51210000D01*
X40373821Y-51214103D01*
X40373821Y-51214103D01*
G37*
G36*
X33388821Y-51087103D02*
X33422982Y-51097466D01*
X33454464Y-51114293D01*
X33482060Y-51136940D01*
X33504707Y-51164536D01*
X33521534Y-51196018D01*
X33531897Y-51230179D01*
X33536000Y-51271842D01*
X33536000Y-52521158D01*
X33531897Y-52562821D01*
X33521534Y-52596982D01*
X33504707Y-52628464D01*
X33482060Y-52656060D01*
X33454464Y-52678707D01*
X33422982Y-52695534D01*
X33388821Y-52705897D01*
X33347158Y-52710000D01*
X30972842Y-52710000D01*
X30931179Y-52705897D01*
X30897018Y-52695534D01*
X30865536Y-52678707D01*
X30837940Y-52656060D01*
X30815293Y-52628464D01*
X30798466Y-52596982D01*
X30788103Y-52562821D01*
X30784000Y-52521158D01*
X30784000Y-51271842D01*
X30788103Y-51230179D01*
X30798466Y-51196018D01*
X30815293Y-51164536D01*
X30837940Y-51136940D01*
X30865536Y-51114293D01*
X30897018Y-51097466D01*
X30931179Y-51087103D01*
X30972842Y-51083000D01*
X33347158Y-51083000D01*
X33388821Y-51087103D01*
X33388821Y-51087103D01*
G37*
G36*
X46723821Y-46539103D02*
X46757982Y-46549466D01*
X46789464Y-46566293D01*
X46817060Y-46588940D01*
X46839707Y-46616536D01*
X46856534Y-46648018D01*
X46866897Y-46682179D01*
X46871000Y-46723842D01*
X46871000Y-47973158D01*
X46866897Y-48014821D01*
X46856534Y-48048982D01*
X46839707Y-48080464D01*
X46817060Y-48108060D01*
X46789464Y-48130707D01*
X46757982Y-48147534D01*
X46723821Y-48157897D01*
X46682158Y-48162000D01*
X44307842Y-48162000D01*
X44266179Y-48157897D01*
X44232018Y-48147534D01*
X44200536Y-48130707D01*
X44172940Y-48108060D01*
X44150293Y-48080464D01*
X44133466Y-48048982D01*
X44123103Y-48014821D01*
X44119000Y-47973158D01*
X44119000Y-46723842D01*
X44123103Y-46682179D01*
X44133466Y-46648018D01*
X44150293Y-46616536D01*
X44172940Y-46588940D01*
X44200536Y-46566293D01*
X44232018Y-46549466D01*
X44266179Y-46539103D01*
X44307842Y-46535000D01*
X46682158Y-46535000D01*
X46723821Y-46539103D01*
X46723821Y-46539103D01*
G37*
G36*
X53200821Y-46539103D02*
X53234982Y-46549466D01*
X53266464Y-46566293D01*
X53294060Y-46588940D01*
X53316707Y-46616536D01*
X53333534Y-46648018D01*
X53343897Y-46682179D01*
X53348000Y-46723842D01*
X53348000Y-47973158D01*
X53343897Y-48014821D01*
X53333534Y-48048982D01*
X53316707Y-48080464D01*
X53294060Y-48108060D01*
X53266464Y-48130707D01*
X53234982Y-48147534D01*
X53200821Y-48157897D01*
X53159158Y-48162000D01*
X50784842Y-48162000D01*
X50743179Y-48157897D01*
X50709018Y-48147534D01*
X50677536Y-48130707D01*
X50649940Y-48108060D01*
X50627293Y-48080464D01*
X50610466Y-48048982D01*
X50600103Y-48014821D01*
X50596000Y-47973158D01*
X50596000Y-46723842D01*
X50600103Y-46682179D01*
X50610466Y-46648018D01*
X50627293Y-46616536D01*
X50649940Y-46588940D01*
X50677536Y-46566293D01*
X50709018Y-46549466D01*
X50743179Y-46539103D01*
X50784842Y-46535000D01*
X53159158Y-46535000D01*
X53200821Y-46539103D01*
X53200821Y-46539103D01*
G37*
G36*
X40373821Y-46539103D02*
X40407982Y-46549466D01*
X40439464Y-46566293D01*
X40467060Y-46588940D01*
X40489707Y-46616536D01*
X40506534Y-46648018D01*
X40516897Y-46682179D01*
X40521000Y-46723842D01*
X40521000Y-47973158D01*
X40516897Y-48014821D01*
X40506534Y-48048982D01*
X40489707Y-48080464D01*
X40467060Y-48108060D01*
X40439464Y-48130707D01*
X40407982Y-48147534D01*
X40373821Y-48157897D01*
X40332158Y-48162000D01*
X37957842Y-48162000D01*
X37916179Y-48157897D01*
X37882018Y-48147534D01*
X37850536Y-48130707D01*
X37822940Y-48108060D01*
X37800293Y-48080464D01*
X37783466Y-48048982D01*
X37773103Y-48014821D01*
X37769000Y-47973158D01*
X37769000Y-46723842D01*
X37773103Y-46682179D01*
X37783466Y-46648018D01*
X37800293Y-46616536D01*
X37822940Y-46588940D01*
X37850536Y-46566293D01*
X37882018Y-46549466D01*
X37916179Y-46539103D01*
X37957842Y-46535000D01*
X40332158Y-46535000D01*
X40373821Y-46539103D01*
X40373821Y-46539103D01*
G37*
G36*
X33388821Y-46412103D02*
X33422982Y-46422466D01*
X33454464Y-46439293D01*
X33482060Y-46461940D01*
X33504707Y-46489536D01*
X33521534Y-46521018D01*
X33531897Y-46555179D01*
X33536000Y-46596842D01*
X33536000Y-47846158D01*
X33531897Y-47887821D01*
X33521534Y-47921982D01*
X33504707Y-47953464D01*
X33482060Y-47981060D01*
X33454464Y-48003707D01*
X33422982Y-48020534D01*
X33388821Y-48030897D01*
X33347158Y-48035000D01*
X30972842Y-48035000D01*
X30931179Y-48030897D01*
X30897018Y-48020534D01*
X30865536Y-48003707D01*
X30837940Y-47981060D01*
X30815293Y-47953464D01*
X30798466Y-47921982D01*
X30788103Y-47887821D01*
X30784000Y-47846158D01*
X30784000Y-46596842D01*
X30788103Y-46555179D01*
X30798466Y-46521018D01*
X30815293Y-46489536D01*
X30837940Y-46461940D01*
X30865536Y-46439293D01*
X30897018Y-46422466D01*
X30931179Y-46412103D01*
X30972842Y-46408000D01*
X33347158Y-46408000D01*
X33388821Y-46412103D01*
X33388821Y-46412103D01*
G37*
G36*
X55126821Y-38154103D02*
X55160982Y-38164466D01*
X55192464Y-38181293D01*
X55220060Y-38203940D01*
X55242707Y-38231536D01*
X55259534Y-38263018D01*
X55269897Y-38297179D01*
X55274000Y-38338842D01*
X55274000Y-40713158D01*
X55269897Y-40754821D01*
X55259534Y-40788982D01*
X55242707Y-40820464D01*
X55220060Y-40848060D01*
X55192464Y-40870707D01*
X55160982Y-40887534D01*
X55126821Y-40897897D01*
X55085158Y-40902000D01*
X53835842Y-40902000D01*
X53794179Y-40897897D01*
X53760018Y-40887534D01*
X53728536Y-40870707D01*
X53700940Y-40848060D01*
X53678293Y-40820464D01*
X53661466Y-40788982D01*
X53651103Y-40754821D01*
X53647000Y-40713158D01*
X53647000Y-38338842D01*
X53651103Y-38297179D01*
X53661466Y-38263018D01*
X53678293Y-38231536D01*
X53700940Y-38203940D01*
X53728536Y-38181293D01*
X53760018Y-38164466D01*
X53794179Y-38154103D01*
X53835842Y-38150000D01*
X55085158Y-38150000D01*
X55126821Y-38154103D01*
X55126821Y-38154103D01*
G37*
G36*
X59801821Y-38154103D02*
X59835982Y-38164466D01*
X59867464Y-38181293D01*
X59895060Y-38203940D01*
X59917707Y-38231536D01*
X59934534Y-38263018D01*
X59944897Y-38297179D01*
X59949000Y-38338842D01*
X59949000Y-40713158D01*
X59944897Y-40754821D01*
X59934534Y-40788982D01*
X59917707Y-40820464D01*
X59895060Y-40848060D01*
X59867464Y-40870707D01*
X59835982Y-40887534D01*
X59801821Y-40897897D01*
X59760158Y-40902000D01*
X58510842Y-40902000D01*
X58469179Y-40897897D01*
X58435018Y-40887534D01*
X58403536Y-40870707D01*
X58375940Y-40848060D01*
X58353293Y-40820464D01*
X58336466Y-40788982D01*
X58326103Y-40754821D01*
X58322000Y-40713158D01*
X58322000Y-38338842D01*
X58326103Y-38297179D01*
X58336466Y-38263018D01*
X58353293Y-38231536D01*
X58375940Y-38203940D01*
X58403536Y-38181293D01*
X58435018Y-38164466D01*
X58469179Y-38154103D01*
X58510842Y-38150000D01*
X59760158Y-38150000D01*
X59801821Y-38154103D01*
X59801821Y-38154103D01*
G37*
G36*
X46951000Y-40451000D02*
X45049000Y-40451000D01*
X45049000Y-38549000D01*
X46951000Y-38549000D01*
X46951000Y-40451000D01*
X46951000Y-40451000D01*
G37*
G36*
X43737396Y-38585546D02*
X43910466Y-38657234D01*
X44066230Y-38761312D01*
X44198688Y-38893770D01*
X44302766Y-39049534D01*
X44374454Y-39222604D01*
X44411000Y-39406333D01*
X44411000Y-39593667D01*
X44374454Y-39777396D01*
X44302766Y-39950466D01*
X44198688Y-40106230D01*
X44066230Y-40238688D01*
X43910466Y-40342766D01*
X43737396Y-40414454D01*
X43553667Y-40451000D01*
X43366333Y-40451000D01*
X43182604Y-40414454D01*
X43009534Y-40342766D01*
X42853770Y-40238688D01*
X42721312Y-40106230D01*
X42617234Y-39950466D01*
X42545546Y-39777396D01*
X42509000Y-39593667D01*
X42509000Y-39406333D01*
X42545546Y-39222604D01*
X42617234Y-39049534D01*
X42721312Y-38893770D01*
X42853770Y-38761312D01*
X43009534Y-38657234D01*
X43182604Y-38585546D01*
X43366333Y-38549000D01*
X43553667Y-38549000D01*
X43737396Y-38585546D01*
X43737396Y-38585546D01*
G37*
G36*
X48937396Y-38585546D02*
X49110466Y-38657234D01*
X49266230Y-38761312D01*
X49398688Y-38893770D01*
X49502766Y-39049534D01*
X49574454Y-39222604D01*
X49611000Y-39406333D01*
X49611000Y-39593667D01*
X49574454Y-39777396D01*
X49502766Y-39950466D01*
X49398688Y-40106230D01*
X49266230Y-40238688D01*
X49110466Y-40342766D01*
X48937396Y-40414454D01*
X48753667Y-40451000D01*
X48566333Y-40451000D01*
X48382604Y-40414454D01*
X48209534Y-40342766D01*
X48053770Y-40238688D01*
X47921312Y-40106230D01*
X47817234Y-39950466D01*
X47745546Y-39777396D01*
X47709000Y-39593667D01*
X47709000Y-39406333D01*
X47745546Y-39222604D01*
X47817234Y-39049534D01*
X47921312Y-38893770D01*
X48053770Y-38761312D01*
X48209534Y-38657234D01*
X48382604Y-38585546D01*
X48566333Y-38549000D01*
X48753667Y-38549000D01*
X48937396Y-38585546D01*
X48937396Y-38585546D01*
G37*
G36*
X52151000Y-40451000D02*
X50249000Y-40451000D01*
X50249000Y-38549000D01*
X52151000Y-38549000D01*
X52151000Y-40451000D01*
X52151000Y-40451000D01*
G37*
G36*
X33737396Y-38585546D02*
X33910466Y-38657234D01*
X34066230Y-38761312D01*
X34198688Y-38893770D01*
X34302766Y-39049534D01*
X34374454Y-39222604D01*
X34411000Y-39406333D01*
X34411000Y-39593667D01*
X34374454Y-39777396D01*
X34302766Y-39950466D01*
X34198688Y-40106230D01*
X34066230Y-40238688D01*
X33910466Y-40342766D01*
X33737396Y-40414454D01*
X33553667Y-40451000D01*
X33366333Y-40451000D01*
X33182604Y-40414454D01*
X33009534Y-40342766D01*
X32853770Y-40238688D01*
X32721312Y-40106230D01*
X32617234Y-39950466D01*
X32545546Y-39777396D01*
X32509000Y-39593667D01*
X32509000Y-39406333D01*
X32545546Y-39222604D01*
X32617234Y-39049534D01*
X32721312Y-38893770D01*
X32853770Y-38761312D01*
X33009534Y-38657234D01*
X33182604Y-38585546D01*
X33366333Y-38549000D01*
X33553667Y-38549000D01*
X33737396Y-38585546D01*
X33737396Y-38585546D01*
G37*
G36*
X36951000Y-40451000D02*
X35049000Y-40451000D01*
X35049000Y-38549000D01*
X36951000Y-38549000D01*
X36951000Y-40451000D01*
X36951000Y-40451000D01*
G37*
G36*
X28537396Y-38585546D02*
X28710466Y-38657234D01*
X28866230Y-38761312D01*
X28998688Y-38893770D01*
X29102766Y-39049534D01*
X29174454Y-39222604D01*
X29211000Y-39406333D01*
X29211000Y-39593667D01*
X29174454Y-39777396D01*
X29102766Y-39950466D01*
X28998688Y-40106230D01*
X28866230Y-40238688D01*
X28710466Y-40342766D01*
X28537396Y-40414454D01*
X28353667Y-40451000D01*
X28166333Y-40451000D01*
X27982604Y-40414454D01*
X27809534Y-40342766D01*
X27653770Y-40238688D01*
X27521312Y-40106230D01*
X27417234Y-39950466D01*
X27345546Y-39777396D01*
X27309000Y-39593667D01*
X27309000Y-39406333D01*
X27345546Y-39222604D01*
X27417234Y-39049534D01*
X27521312Y-38893770D01*
X27653770Y-38761312D01*
X27809534Y-38657234D01*
X27982604Y-38585546D01*
X28166333Y-38549000D01*
X28353667Y-38549000D01*
X28537396Y-38585546D01*
X28537396Y-38585546D01*
G37*
G36*
X31751000Y-40451000D02*
X29849000Y-40451000D01*
X29849000Y-38549000D01*
X31751000Y-38549000D01*
X31751000Y-40451000D01*
X31751000Y-40451000D01*
G37*
G36*
X61003821Y-28128103D02*
X61037982Y-28138466D01*
X61069464Y-28155293D01*
X61097060Y-28177940D01*
X61119707Y-28205536D01*
X61136534Y-28237018D01*
X61146897Y-28271179D01*
X61151000Y-28312842D01*
X61151000Y-30687158D01*
X61146897Y-30728821D01*
X61136534Y-30762982D01*
X61119707Y-30794464D01*
X61097060Y-30822060D01*
X61069464Y-30844707D01*
X61037982Y-30861534D01*
X61003821Y-30871897D01*
X60962158Y-30876000D01*
X59712842Y-30876000D01*
X59671179Y-30871897D01*
X59637018Y-30861534D01*
X59605536Y-30844707D01*
X59577940Y-30822060D01*
X59555293Y-30794464D01*
X59538466Y-30762982D01*
X59528103Y-30728821D01*
X59524000Y-30687158D01*
X59524000Y-28312842D01*
X59528103Y-28271179D01*
X59538466Y-28237018D01*
X59555293Y-28205536D01*
X59577940Y-28177940D01*
X59605536Y-28155293D01*
X59637018Y-28138466D01*
X59671179Y-28128103D01*
X59712842Y-28124000D01*
X60962158Y-28124000D01*
X61003821Y-28128103D01*
X61003821Y-28128103D01*
G37*
G36*
X56328821Y-28128103D02*
X56362982Y-28138466D01*
X56394464Y-28155293D01*
X56422060Y-28177940D01*
X56444707Y-28205536D01*
X56461534Y-28237018D01*
X56471897Y-28271179D01*
X56476000Y-28312842D01*
X56476000Y-30687158D01*
X56471897Y-30728821D01*
X56461534Y-30762982D01*
X56444707Y-30794464D01*
X56422060Y-30822060D01*
X56394464Y-30844707D01*
X56362982Y-30861534D01*
X56328821Y-30871897D01*
X56287158Y-30876000D01*
X55037842Y-30876000D01*
X54996179Y-30871897D01*
X54962018Y-30861534D01*
X54930536Y-30844707D01*
X54902940Y-30822060D01*
X54880293Y-30794464D01*
X54863466Y-30762982D01*
X54853103Y-30728821D01*
X54849000Y-30687158D01*
X54849000Y-28312842D01*
X54853103Y-28271179D01*
X54863466Y-28237018D01*
X54880293Y-28205536D01*
X54902940Y-28177940D01*
X54930536Y-28155293D01*
X54962018Y-28138466D01*
X54996179Y-28128103D01*
X55037842Y-28124000D01*
X56287158Y-28124000D01*
X56328821Y-28128103D01*
X56328821Y-28128103D01*
G37*
G36*
X23737396Y-28585546D02*
X23910466Y-28657234D01*
X24066230Y-28761312D01*
X24198688Y-28893770D01*
X24302766Y-29049534D01*
X24374454Y-29222604D01*
X24411000Y-29406333D01*
X24411000Y-29593667D01*
X24374454Y-29777396D01*
X24302766Y-29950466D01*
X24198688Y-30106230D01*
X24066230Y-30238688D01*
X23910466Y-30342766D01*
X23737396Y-30414454D01*
X23553667Y-30451000D01*
X23366333Y-30451000D01*
X23182604Y-30414454D01*
X23009534Y-30342766D01*
X22853770Y-30238688D01*
X22721312Y-30106230D01*
X22617234Y-29950466D01*
X22545546Y-29777396D01*
X22509000Y-29593667D01*
X22509000Y-29406333D01*
X22545546Y-29222604D01*
X22617234Y-29049534D01*
X22721312Y-28893770D01*
X22853770Y-28761312D01*
X23009534Y-28657234D01*
X23182604Y-28585546D01*
X23366333Y-28549000D01*
X23553667Y-28549000D01*
X23737396Y-28585546D01*
X23737396Y-28585546D01*
G37*
G36*
X26951000Y-30451000D02*
X25049000Y-30451000D01*
X25049000Y-28549000D01*
X26951000Y-28549000D01*
X26951000Y-30451000D01*
X26951000Y-30451000D01*
G37*
G36*
X33737396Y-28585546D02*
X33910466Y-28657234D01*
X34066230Y-28761312D01*
X34198688Y-28893770D01*
X34302766Y-29049534D01*
X34374454Y-29222604D01*
X34411000Y-29406333D01*
X34411000Y-29593667D01*
X34374454Y-29777396D01*
X34302766Y-29950466D01*
X34198688Y-30106230D01*
X34066230Y-30238688D01*
X33910466Y-30342766D01*
X33737396Y-30414454D01*
X33553667Y-30451000D01*
X33366333Y-30451000D01*
X33182604Y-30414454D01*
X33009534Y-30342766D01*
X32853770Y-30238688D01*
X32721312Y-30106230D01*
X32617234Y-29950466D01*
X32545546Y-29777396D01*
X32509000Y-29593667D01*
X32509000Y-29406333D01*
X32545546Y-29222604D01*
X32617234Y-29049534D01*
X32721312Y-28893770D01*
X32853770Y-28761312D01*
X33009534Y-28657234D01*
X33182604Y-28585546D01*
X33366333Y-28549000D01*
X33553667Y-28549000D01*
X33737396Y-28585546D01*
X33737396Y-28585546D01*
G37*
G36*
X36951000Y-30451000D02*
X35049000Y-30451000D01*
X35049000Y-28549000D01*
X36951000Y-28549000D01*
X36951000Y-30451000D01*
X36951000Y-30451000D01*
G37*
G36*
X46951000Y-30451000D02*
X45049000Y-30451000D01*
X45049000Y-28549000D01*
X46951000Y-28549000D01*
X46951000Y-30451000D01*
X46951000Y-30451000D01*
G37*
G36*
X43737396Y-28585546D02*
X43910466Y-28657234D01*
X44066230Y-28761312D01*
X44198688Y-28893770D01*
X44302766Y-29049534D01*
X44374454Y-29222604D01*
X44411000Y-29406333D01*
X44411000Y-29593667D01*
X44374454Y-29777396D01*
X44302766Y-29950466D01*
X44198688Y-30106230D01*
X44066230Y-30238688D01*
X43910466Y-30342766D01*
X43737396Y-30414454D01*
X43553667Y-30451000D01*
X43366333Y-30451000D01*
X43182604Y-30414454D01*
X43009534Y-30342766D01*
X42853770Y-30238688D01*
X42721312Y-30106230D01*
X42617234Y-29950466D01*
X42545546Y-29777396D01*
X42509000Y-29593667D01*
X42509000Y-29406333D01*
X42545546Y-29222604D01*
X42617234Y-29049534D01*
X42721312Y-28893770D01*
X42853770Y-28761312D01*
X43009534Y-28657234D01*
X43182604Y-28585546D01*
X43366333Y-28549000D01*
X43553667Y-28549000D01*
X43737396Y-28585546D01*
X43737396Y-28585546D01*
G37*
M02*
